<mxfile host="app.diagrams.net" modified="2022-11-05T20:50:45.952Z" agent="5.0 (Windows NT 10.0; Win64; x64) AppleWebKit/537.36 (KHTML, like Gecko) Chrome/107.0.0.0 Safari/537.36" etag="s2AZ0H7coTBoEU90yjwM" version="20.5.2" type="github">
  <diagram name="Page-1" id="9f46799a-70d6-7492-0946-bef42562c5a5">
    <mxGraphModel dx="1185" dy="623" grid="1" gridSize="10" guides="1" tooltips="1" connect="1" arrows="1" fold="1" page="1" pageScale="1" pageWidth="1100" pageHeight="850" math="0" shadow="0">
      <root>
        <mxCell id="0" />
        <mxCell id="1" parent="0" />
        <mxCell id="iNtt1AEWV2vydWxyn8MH-26" value="" style="rounded=0;whiteSpace=wrap;html=1;strokeWidth=3;fontSize=32;fillColor=default;" vertex="1" parent="1">
          <mxGeometry x="920" y="210" width="120" height="70" as="geometry" />
        </mxCell>
        <mxCell id="ako7mKqaWkMYn8Wf8Trb-88" style="edgeStyle=orthogonalEdgeStyle;rounded=0;orthogonalLoop=1;jettySize=auto;html=1;exitX=0.5;exitY=1;exitDx=0;exitDy=0;entryX=0.5;entryY=0;entryDx=0;entryDy=0;fontSize=13;strokeWidth=2;strokeColor=#FF0080;dashed=1;dashPattern=1 1;" parent="1" source="ako7mKqaWkMYn8Wf8Trb-12" target="ako7mKqaWkMYn8Wf8Trb-25" edge="1">
          <mxGeometry relative="1" as="geometry" />
        </mxCell>
        <mxCell id="ako7mKqaWkMYn8Wf8Trb-92" style="edgeStyle=orthogonalEdgeStyle;rounded=0;orthogonalLoop=1;jettySize=auto;html=1;exitX=0.5;exitY=0;exitDx=0;exitDy=0;entryX=0.5;entryY=1;entryDx=0;entryDy=0;fontSize=13;strokeWidth=2;strokeColor=#66FFFF;dashed=1;dashPattern=1 1;" parent="1" source="ako7mKqaWkMYn8Wf8Trb-12" target="ako7mKqaWkMYn8Wf8Trb-90" edge="1">
          <mxGeometry relative="1" as="geometry" />
        </mxCell>
        <mxCell id="iNtt1AEWV2vydWxyn8MH-6" style="edgeStyle=orthogonalEdgeStyle;rounded=0;orthogonalLoop=1;jettySize=auto;html=1;exitX=1;exitY=0;exitDx=0;exitDy=0;entryX=0.5;entryY=1;entryDx=0;entryDy=0;strokeColor=#66FFFF;strokeWidth=2;dashed=1;dashPattern=1 1;" edge="1" parent="1" source="ako7mKqaWkMYn8Wf8Trb-25" target="ako7mKqaWkMYn8Wf8Trb-13">
          <mxGeometry relative="1" as="geometry">
            <Array as="points">
              <mxPoint x="180" y="380" />
              <mxPoint x="280" y="380" />
            </Array>
          </mxGeometry>
        </mxCell>
        <mxCell id="iNtt1AEWV2vydWxyn8MH-12" style="edgeStyle=orthogonalEdgeStyle;rounded=0;orthogonalLoop=1;jettySize=auto;html=1;exitX=0.25;exitY=1;exitDx=0;exitDy=0;strokeColor=#FF0080;strokeWidth=2;dashed=1;dashPattern=1 1;" edge="1" parent="1" source="ako7mKqaWkMYn8Wf8Trb-25">
          <mxGeometry relative="1" as="geometry">
            <mxPoint x="810" y="336" as="targetPoint" />
            <Array as="points">
              <mxPoint x="90" y="620" />
              <mxPoint x="810" y="620" />
              <mxPoint x="810" y="336" />
            </Array>
          </mxGeometry>
        </mxCell>
        <mxCell id="iNtt1AEWV2vydWxyn8MH-13" style="edgeStyle=orthogonalEdgeStyle;rounded=0;orthogonalLoop=1;jettySize=auto;html=1;exitX=0.75;exitY=1;exitDx=0;exitDy=0;entryX=0.5;entryY=1;entryDx=0;entryDy=0;strokeColor=#FF0080;strokeWidth=2;dashed=1;dashPattern=1 1;" edge="1" parent="1" source="ako7mKqaWkMYn8Wf8Trb-25" target="ako7mKqaWkMYn8Wf8Trb-76">
          <mxGeometry relative="1" as="geometry">
            <Array as="points">
              <mxPoint x="150" y="600" />
              <mxPoint x="980" y="600" />
            </Array>
          </mxGeometry>
        </mxCell>
        <mxCell id="ako7mKqaWkMYn8Wf8Trb-25" value="OC" style="swimlane;html=1;fontStyle=1;align=center;verticalAlign=middle;childLayout=stackLayout;horizontal=1;startSize=26;horizontalStack=0;resizeParent=1;resizeLast=0;collapsible=1;marginBottom=0;swimlaneFillColor=#ffffff;rounded=0;shadow=0;comic=0;labelBackgroundColor=none;strokeWidth=1;fillColor=#e1d5e7;fontFamily=Verdana;fontSize=13;strokeColor=#9673a6;" parent="1" vertex="1">
          <mxGeometry x="60" y="400" width="120" height="82" as="geometry" />
        </mxCell>
        <mxCell id="ako7mKqaWkMYn8Wf8Trb-27" value="+ OpenCore.efi" style="text;html=1;strokeColor=none;fillColor=none;align=left;verticalAlign=middle;spacingLeft=4;spacingRight=4;whiteSpace=wrap;overflow=hidden;rotatable=0;points=[[0,0.5],[1,0.5]];portConstraint=eastwest;fontSize=13;" parent="ako7mKqaWkMYn8Wf8Trb-25" vertex="1">
          <mxGeometry y="26" width="120" height="26" as="geometry" />
        </mxCell>
        <mxCell id="ako7mKqaWkMYn8Wf8Trb-26" value="+ config.plist" style="text;html=1;strokeColor=none;fillColor=none;align=left;verticalAlign=middle;spacingLeft=4;spacingRight=4;whiteSpace=wrap;overflow=hidden;rotatable=0;points=[[0,0.5],[1,0.5]];portConstraint=eastwest;fontSize=13;" parent="ako7mKqaWkMYn8Wf8Trb-25" vertex="1">
          <mxGeometry y="52" width="120" height="22" as="geometry" />
        </mxCell>
        <mxCell id="ako7mKqaWkMYn8Wf8Trb-90" value="BOOT" style="swimlane;html=1;fontStyle=1;align=center;verticalAlign=middle;childLayout=stackLayout;horizontal=1;startSize=26;horizontalStack=0;resizeParent=1;resizeLast=0;collapsible=1;marginBottom=0;swimlaneFillColor=#ffffff;rounded=0;shadow=0;comic=0;labelBackgroundColor=none;strokeWidth=1;fillColor=#e1d5e7;fontFamily=Verdana;fontSize=13;strokeColor=#9673a6;" parent="1" vertex="1">
          <mxGeometry x="60" y="210" width="120" height="56" as="geometry" />
        </mxCell>
        <mxCell id="ako7mKqaWkMYn8Wf8Trb-91" value="+ BOOTx64.efi" style="text;html=1;strokeColor=none;fillColor=none;align=left;verticalAlign=middle;spacingLeft=4;spacingRight=4;whiteSpace=wrap;overflow=hidden;rotatable=0;points=[[0,0.5],[1,0.5]];portConstraint=eastwest;fontSize=13;" parent="ako7mKqaWkMYn8Wf8Trb-90" vertex="1">
          <mxGeometry y="26" width="120" height="22" as="geometry" />
        </mxCell>
        <mxCell id="ako7mKqaWkMYn8Wf8Trb-12" value="&lt;span style=&quot;font-family: Verdana; font-weight: 700; font-size: 13px;&quot;&gt;EFI&lt;/span&gt;" style="rounded=0;whiteSpace=wrap;html=1;fillColor=#fad9d5;strokeColor=#ae4132;fontSize=13;verticalAlign=middle;" parent="1" vertex="1">
          <mxGeometry x="60" y="320" width="120" height="26" as="geometry" />
        </mxCell>
        <mxCell id="ako7mKqaWkMYn8Wf8Trb-13" value="ACPI" style="swimlane;html=1;fontStyle=1;align=center;verticalAlign=middle;childLayout=stackLayout;horizontal=1;startSize=26;horizontalStack=0;resizeParent=1;resizeLast=0;collapsible=1;marginBottom=0;swimlaneFillColor=#ffffff;rounded=0;shadow=0;comic=0;labelBackgroundColor=none;strokeWidth=1;fillColor=#fff2cc;fontFamily=Verdana;fontSize=13;strokeColor=#d6b656;" parent="1" vertex="1">
          <mxGeometry x="210" y="212" width="120" height="48" as="geometry" />
        </mxCell>
        <mxCell id="ako7mKqaWkMYn8Wf8Trb-14" value="+ SSDT-Patch.aml" style="text;html=1;strokeColor=none;fillColor=none;align=left;verticalAlign=middle;spacingLeft=4;spacingRight=4;whiteSpace=wrap;overflow=hidden;rotatable=0;points=[[0,0.5],[1,0.5]];portConstraint=eastwest;fontSize=13;" parent="ako7mKqaWkMYn8Wf8Trb-13" vertex="1">
          <mxGeometry y="26" width="120" height="22" as="geometry" />
        </mxCell>
        <mxCell id="ako7mKqaWkMYn8Wf8Trb-34" value="Drivers" style="swimlane;html=1;fontStyle=1;align=center;verticalAlign=middle;childLayout=stackLayout;horizontal=1;startSize=26;horizontalStack=0;resizeParent=1;resizeLast=0;collapsible=1;marginBottom=0;swimlaneFillColor=#ffffff;rounded=0;shadow=0;comic=0;labelBackgroundColor=none;strokeWidth=1;fillColor=#bac8d3;fontFamily=Verdana;fontSize=13;strokeColor=#23445d;" parent="1" vertex="1">
          <mxGeometry x="370" y="212" width="120" height="101" as="geometry" />
        </mxCell>
        <mxCell id="ako7mKqaWkMYn8Wf8Trb-35" value="+ HfsPlus.efi" style="text;html=1;strokeColor=none;fillColor=none;align=left;verticalAlign=middle;spacingLeft=4;spacingRight=4;whiteSpace=wrap;overflow=hidden;rotatable=0;points=[[0,0.5],[1,0.5]];portConstraint=eastwest;fontSize=13;" parent="ako7mKqaWkMYn8Wf8Trb-34" vertex="1">
          <mxGeometry y="26" width="120" height="22" as="geometry" />
        </mxCell>
        <mxCell id="ako7mKqaWkMYn8Wf8Trb-36" value="+ OpenRuntime.efi" style="text;html=1;strokeColor=none;fillColor=none;align=left;verticalAlign=middle;spacingLeft=4;spacingRight=4;whiteSpace=wrap;overflow=hidden;rotatable=0;points=[[0,0.5],[1,0.5]];portConstraint=eastwest;fontSize=13;" parent="ako7mKqaWkMYn8Wf8Trb-34" vertex="1">
          <mxGeometry y="48" width="120" height="26" as="geometry" />
        </mxCell>
        <mxCell id="ako7mKqaWkMYn8Wf8Trb-37" value="+ OpenCanopy.efi" style="text;html=1;strokeColor=#d79b00;fillColor=#ffe6cc;align=left;verticalAlign=middle;spacingLeft=4;spacingRight=4;whiteSpace=wrap;overflow=hidden;rotatable=0;points=[[0,0.5],[1,0.5]];portConstraint=eastwest;fontSize=13;" parent="ako7mKqaWkMYn8Wf8Trb-34" vertex="1">
          <mxGeometry y="74" width="120" height="26" as="geometry" />
        </mxCell>
        <mxCell id="ako7mKqaWkMYn8Wf8Trb-46" value="Kexts" style="swimlane;html=1;fontStyle=1;align=center;verticalAlign=middle;childLayout=stackLayout;horizontal=1;startSize=26;horizontalStack=0;resizeParent=1;resizeLast=0;collapsible=1;marginBottom=0;swimlaneFillColor=#ffffff;rounded=0;shadow=0;comic=0;labelBackgroundColor=none;strokeWidth=1;fillColor=#dae8fc;fontFamily=Verdana;fontSize=13;strokeColor=#6c8ebf;" parent="1" vertex="1">
          <mxGeometry x="530" y="211" width="180" height="282" as="geometry" />
        </mxCell>
        <mxCell id="ako7mKqaWkMYn8Wf8Trb-47" value="+ Lilu.kext" style="text;html=1;strokeColor=#A50040;fillColor=#d80073;align=left;verticalAlign=middle;spacingLeft=4;spacingRight=4;whiteSpace=wrap;overflow=hidden;rotatable=0;points=[[0,0.5],[1,0.5]];portConstraint=eastwest;fontSize=13;fontColor=#ffffff;" parent="ako7mKqaWkMYn8Wf8Trb-46" vertex="1">
          <mxGeometry y="26" width="180" height="22" as="geometry" />
        </mxCell>
        <mxCell id="ako7mKqaWkMYn8Wf8Trb-48" value="+ AppleALC.kext" style="text;html=1;strokeColor=#006EAF;fillColor=#1ba1e2;align=left;verticalAlign=middle;spacingLeft=4;spacingRight=4;whiteSpace=wrap;overflow=hidden;rotatable=0;points=[[0,0.5],[1,0.5]];portConstraint=eastwest;fontSize=13;fontColor=#ffffff;" parent="ako7mKqaWkMYn8Wf8Trb-46" vertex="1">
          <mxGeometry y="48" width="180" height="26" as="geometry" />
        </mxCell>
        <mxCell id="ako7mKqaWkMYn8Wf8Trb-49" value="+ VirtualSMC.kext" style="text;html=1;strokeColor=#006EAF;fillColor=#1ba1e2;align=left;verticalAlign=middle;spacingLeft=4;spacingRight=4;whiteSpace=wrap;overflow=hidden;rotatable=0;points=[[0,0.5],[1,0.5]];portConstraint=eastwest;fontSize=13;fontColor=#ffffff;" parent="ako7mKqaWkMYn8Wf8Trb-46" vertex="1">
          <mxGeometry y="74" width="180" height="26" as="geometry" />
        </mxCell>
        <mxCell id="ako7mKqaWkMYn8Wf8Trb-50" value="+ LucyRTL8125Ethernet.kext" style="text;html=1;strokeColor=#006EAF;fillColor=#1ba1e2;align=left;verticalAlign=middle;spacingLeft=4;spacingRight=4;whiteSpace=wrap;overflow=hidden;rotatable=0;points=[[0,0.5],[1,0.5]];portConstraint=eastwest;fontSize=13;fontColor=#ffffff;" parent="ako7mKqaWkMYn8Wf8Trb-46" vertex="1">
          <mxGeometry y="100" width="180" height="26" as="geometry" />
        </mxCell>
        <mxCell id="ako7mKqaWkMYn8Wf8Trb-51" value="+ SMCProcessor.kext" style="text;html=1;strokeColor=#006EAF;fillColor=#1ba1e2;align=left;verticalAlign=middle;spacingLeft=4;spacingRight=4;whiteSpace=wrap;overflow=hidden;rotatable=0;points=[[0,0.5],[1,0.5]];portConstraint=eastwest;fontSize=13;fontColor=#ffffff;" parent="ako7mKqaWkMYn8Wf8Trb-46" vertex="1">
          <mxGeometry y="126" width="180" height="26" as="geometry" />
        </mxCell>
        <mxCell id="ako7mKqaWkMYn8Wf8Trb-53" value="+ SMCSuperIO.kext" style="text;html=1;strokeColor=#006EAF;fillColor=#1ba1e2;align=left;verticalAlign=middle;spacingLeft=4;spacingRight=4;whiteSpace=wrap;overflow=hidden;rotatable=0;points=[[0,0.5],[1,0.5]];portConstraint=eastwest;fontSize=13;fontColor=#ffffff;" parent="ako7mKqaWkMYn8Wf8Trb-46" vertex="1">
          <mxGeometry y="152" width="180" height="26" as="geometry" />
        </mxCell>
        <mxCell id="ako7mKqaWkMYn8Wf8Trb-54" value="+ RadeonSensor.kext" style="text;html=1;strokeColor=#2D7600;fillColor=#60a917;align=left;verticalAlign=middle;spacingLeft=4;spacingRight=4;whiteSpace=wrap;overflow=hidden;rotatable=0;points=[[0,0.5],[1,0.5]];portConstraint=eastwest;fontSize=13;fontColor=#ffffff;" parent="ako7mKqaWkMYn8Wf8Trb-46" vertex="1">
          <mxGeometry y="178" width="180" height="26" as="geometry" />
        </mxCell>
        <mxCell id="ako7mKqaWkMYn8Wf8Trb-57" value="+ SMCRadeonGPU.kext" style="text;html=1;strokeColor=#2D7600;fillColor=#60a917;align=left;verticalAlign=middle;spacingLeft=4;spacingRight=4;whiteSpace=wrap;overflow=hidden;rotatable=0;points=[[0,0.5],[1,0.5]];portConstraint=eastwest;fontSize=13;fontColor=#ffffff;" parent="ako7mKqaWkMYn8Wf8Trb-46" vertex="1">
          <mxGeometry y="204" width="180" height="26" as="geometry" />
        </mxCell>
        <mxCell id="ako7mKqaWkMYn8Wf8Trb-58" value="+ USBMap.kext" style="text;html=1;strokeColor=none;fillColor=none;align=left;verticalAlign=middle;spacingLeft=4;spacingRight=4;whiteSpace=wrap;overflow=hidden;rotatable=0;points=[[0,0.5],[1,0.5]];portConstraint=eastwest;fontSize=13;" parent="ako7mKqaWkMYn8Wf8Trb-46" vertex="1">
          <mxGeometry y="230" width="180" height="26" as="geometry" />
        </mxCell>
        <mxCell id="ako7mKqaWkMYn8Wf8Trb-59" value="+ Whatevergreen.kext" style="text;html=1;strokeColor=#006EAF;fillColor=#1ba1e2;align=left;verticalAlign=middle;spacingLeft=4;spacingRight=4;whiteSpace=wrap;overflow=hidden;rotatable=0;points=[[0,0.5],[1,0.5]];portConstraint=eastwest;fontSize=13;fontColor=#ffffff;" parent="ako7mKqaWkMYn8Wf8Trb-46" vertex="1">
          <mxGeometry y="256" width="180" height="26" as="geometry" />
        </mxCell>
        <mxCell id="ako7mKqaWkMYn8Wf8Trb-66" value="Resources" style="swimlane;html=1;fontStyle=1;align=center;verticalAlign=middle;childLayout=stackLayout;horizontal=1;startSize=26;horizontalStack=0;resizeParent=1;resizeLast=0;collapsible=1;marginBottom=0;swimlaneFillColor=#ffffff;rounded=0;shadow=0;comic=0;labelBackgroundColor=none;strokeWidth=1;fillColor=#b0e3e6;fontFamily=Verdana;fontSize=13;strokeColor=#0e8088;" parent="1" vertex="1">
          <mxGeometry x="750" y="210" width="120" height="126" as="geometry" />
        </mxCell>
        <mxCell id="ako7mKqaWkMYn8Wf8Trb-67" value="+ Audio" style="text;html=1;strokeColor=none;fillColor=none;align=left;verticalAlign=middle;spacingLeft=4;spacingRight=4;whiteSpace=wrap;overflow=hidden;rotatable=0;points=[[0,0.5],[1,0.5]];portConstraint=eastwest;fontSize=13;" parent="ako7mKqaWkMYn8Wf8Trb-66" vertex="1">
          <mxGeometry y="26" width="120" height="22" as="geometry" />
        </mxCell>
        <mxCell id="ako7mKqaWkMYn8Wf8Trb-68" value="+ Font" style="text;html=1;strokeColor=none;fillColor=none;align=left;verticalAlign=middle;spacingLeft=4;spacingRight=4;whiteSpace=wrap;overflow=hidden;rotatable=0;points=[[0,0.5],[1,0.5]];portConstraint=eastwest;fontSize=13;" parent="ako7mKqaWkMYn8Wf8Trb-66" vertex="1">
          <mxGeometry y="48" width="120" height="26" as="geometry" />
        </mxCell>
        <mxCell id="ako7mKqaWkMYn8Wf8Trb-69" value="+ Image" style="text;html=1;strokeColor=none;fillColor=none;align=left;verticalAlign=middle;spacingLeft=4;spacingRight=4;whiteSpace=wrap;overflow=hidden;rotatable=0;points=[[0,0.5],[1,0.5]];portConstraint=eastwest;fontSize=13;" parent="ako7mKqaWkMYn8Wf8Trb-66" vertex="1">
          <mxGeometry y="74" width="120" height="26" as="geometry" />
        </mxCell>
        <mxCell id="ako7mKqaWkMYn8Wf8Trb-70" value="+ Label" style="text;html=1;strokeColor=none;fillColor=none;align=left;verticalAlign=middle;spacingLeft=4;spacingRight=4;whiteSpace=wrap;overflow=hidden;rotatable=0;points=[[0,0.5],[1,0.5]];portConstraint=eastwest;fontSize=13;" parent="ako7mKqaWkMYn8Wf8Trb-66" vertex="1">
          <mxGeometry y="100" width="120" height="26" as="geometry" />
        </mxCell>
        <mxCell id="ako7mKqaWkMYn8Wf8Trb-76" value="Tools" style="swimlane;html=1;fontStyle=1;align=center;verticalAlign=middle;childLayout=stackLayout;horizontal=1;startSize=26;horizontalStack=0;resizeParent=1;resizeLast=0;collapsible=1;marginBottom=0;swimlaneFillColor=#ffffff;rounded=0;shadow=0;comic=0;labelBackgroundColor=none;strokeWidth=1;fillColor=#b1ddf0;fontFamily=Verdana;fontSize=13;strokeColor=#10739e;" parent="1" vertex="1">
          <mxGeometry x="920" y="297" width="120" height="48" as="geometry" />
        </mxCell>
        <mxCell id="ako7mKqaWkMYn8Wf8Trb-77" value="+ CleanNvram.efi" style="text;html=1;strokeColor=#d79b00;fillColor=#ffe6cc;align=left;verticalAlign=middle;spacingLeft=4;spacingRight=4;whiteSpace=wrap;overflow=hidden;rotatable=0;points=[[0,0.5],[1,0.5]];portConstraint=eastwest;fontSize=13;" parent="ako7mKqaWkMYn8Wf8Trb-76" vertex="1">
          <mxGeometry y="26" width="120" height="22" as="geometry" />
        </mxCell>
        <mxCell id="hTtuXJixxiqgdkir2rRs-2" value="" style="shape=image;verticalLabelPosition=bottom;labelBackgroundColor=default;verticalAlign=top;aspect=fixed;imageAspect=0;image=data:image/png,iVBORw0KGgoAAAANSUhEUgAAAx8AAAGQCAYAAADP3d2BAAAEtGlUWHRYTUw6Y29tLmFkb2JlLnhtcAAAAAAAPD94cGFja2V0IGJlZ2luPSLvu78iIGlkPSJXNU0wTXBDZWhpSHpyZVN6TlRjemtjOWQiPz4KPHg6eG1wbWV0YSB4bWxuczp4PSJhZG9iZTpuczptZXRhLyIgeDp4bXB0az0iWE1QIENvcmUgNS41LjAiPgogPHJkZjpSREYgeG1sbnM6cmRmPSJodHRwOi8vd3d3LnczLm9yZy8xOTk5LzAyLzIyLXJkZi1zeW50YXgtbnMjIj4KICA8cmRmOkRlc2NyaXB0aW9uIHJkZjphYm91dD0iIgogICAgeG1sbnM6ZXhpZj0iaHR0cDovL25zLmFkb2JlLmNvbS9leGlmLzEuMC8iCiAgICB4bWxuczp0aWZmPSJodHRwOi8vbnMuYWRvYmUuY29tL3RpZmYvMS4wLyIKICAgIHhtbG5zOnBob3Rvc2hvcD0iaHR0cDovL25zLmFkb2JlLmNvbS9waG90b3Nob3AvMS4wLyIKICAgIHhtbG5zOnhtcD0iaHR0cDovL25zLmFkb2JlLmNvbS94YXAvMS4wLyIKICAgIHhtbG5zOnhtcE1NPSJodHRwOi8vbnMuYWRvYmUuY29tL3hhcC8xLjAvbW0vIgogICAgeG1sbnM6c3RFdnQ9Imh0dHA6Ly9ucy5hZG9iZS5jb20veGFwLzEuMC9zVHlwZS9SZXNvdXJjZUV2ZW50IyIKICAgZXhpZjpQaXhlbFhEaW1lbnNpb249Ijc5OSIKICAgZXhpZjpQaXhlbFlEaW1lbnNpb249IjQwMCIKICAgZXhpZjpDb2xvclNwYWNlPSIxIgogICB0aWZmOkltYWdlV2lkdGg9Ijc5OSIKICAgdGlmZjpJbWFnZUxlbmd0aD0iNDAwIgogICB0aWZmOlJlc29sdXRpb25Vbml0PSIyIgogICB0aWZmOlhSZXNvbHV0aW9uPSI3Mi8xIgogICB0aWZmOllSZXNvbHV0aW9uPSI3Mi8xIgogICBwaG90b3Nob3A6Q29sb3JNb2RlPSIzIgogICBwaG90b3Nob3A6SUNDUHJvZmlsZT0ic1JHQiBJRUM2MTk2Ni0yLjEiCiAgIHhtcDpNb2RpZnlEYXRlPSIyMDIyLTAyLTA2VDEzOjQzOjA0LTA4OjAwIgogICB4bXA6TWV0YWRhdGFEYXRlPSIyMDIyLTAyLTA2VDEzOjQzOjA0LTA4OjAwIj4KICAgPHhtcE1NOkhpc3Rvcnk+CiAgICA8cmRmOlNlcT4KICAgICA8cmRmOmxpCiAgICAgIHN0RXZ0OmFjdGlvbj0icHJvZHVjZWQiCiAgICAgIHN0RXZ0OnNvZnR3YXJlQWdlbnQ9IkFmZmluaXR5IFBob3RvIDEuMTAuNCIKICAgICAgc3RFdnQ6d2hlbj0iMjAyMi0wMi0wNlQxMzo0MzowNC0wODowMCIvPgogICAgPC9yZGY6U2VxPgogICA8L3htcE1NOkhpc3Rvcnk+CiAgPC9yZGY6RGVzY3JpcHRpb24+CiA8L3JkZjpSREY+CjwveDp4bXBtZXRhPgo8P3hwYWNrZXQgZW5kPSJyIj8+Hd1rAAAAAYNpQ0NQc1JHQiBJRUM2MTk2Ni0yLjEAACiRdZHLK8RRFMc/xmPEaBTKwmKSR8qIUWKjzKShJk1jlNdm5jcvNY9fv99IslW2U5TYeC34C9gqa6WIlCxlTWyYfs5vZmokc27nns/93ntO954LlmBSSek1g5BKZ7WA1+2YX1h0WF+wUEcbffSGFF2d8Pt9VLTPe6rMeOs0a1U+9681RqK6AlX1wuOKqmWFp4R9a1nV5B3hViURigifCfdrckHhO1MPF/nV5HiRv03WggEPWJqFHfFfHP7FSkJLCcvL6UolV5XSfcyX2KLpuVmJneId6ATw4sbBNJN4GGGIMZlHcOJiQFZUyB8s5M+QkVxFZpV1NFaIkyBLv6irUj0qMSZ6VEaSdbP/f/uqx4Zdxeo2N9Q+G8Z7N1i3IZ8zjK8jw8gfQ/UTXKbL+ZlDGP0QPVfWug7AvgnnV2UtvAsXW9D+qIa0UEGqFrfEYvB2Ck0L0HIDDUvFnpX2OXmA4IZ81TXs7UOPnLcv/wBnXWfmad/xMQAAAAlwSFlzAAALEwAACxMBAJqcGAAAIABJREFUeJzs3Xl8XNV9N/7P99wZSZZXbIxZDBgwYFuSjbEl22yhJQkQApYMpIE0TdOUtilp0+1JCEnapG2aJs3vSZNflj5d0oQ0ZGOxgTzZE0hCwAsB2/LGYsxuwIDxpm3u+Tx/zKI7d+6MZrTb/rx5GWlm7j33zIw0Op97lguIiIiIiIiIiIiIiIiIiIiIiIiIiIiIiIiIiIiIiIiIiIiIiIiIiIiIiIiIiIiIiIiIiIiIiIiIiIiIiIiIiIiIiIiIiIiIiIiIiIiIiIiIiIiIiIiIiIiIiIiIiIiIiIiIiIiIiIiIiIiIiIiIiIiIiIiIiIiIiIiIiIiIiIiIiIiIiIiIiIiIiIiIiIiIiIiIiIiIiIiIiIiIiIiIiIiIiIiIiIiIiIiIiIiIiIiIiIiIiIiIiIiIiIiIiIiIiIiIiIiIiIiIiIiIiIiIiIiIiIiIiIiIiIiIiIiIiIiIiIiIiIiIiIiIiIiIiIiIiIiIiIiIiIiIiIiIiIiIiIiIiIiIiIiIiIiIiIiIiIiIiIiIiIiIiIiIiIiIiIiIiIiIiIiIiIiIiIiIiIiIiIiIiIiIiIiIiIiIiIiIiIiIiIiIiIiIiIiIiIiIiIiIiIiIiIiIiIiIiIiIiIiIiIiIiIiIiIiIiIiIiIiIiIiIiIiIiIiIiIiIiIiIiIiIiIiIiIiIiIiIiIiIiIiIiIiIiIiIiIiIiIiIiIiIiIiIiIiIiIiIiIiIiIiIiIiIiIiIiIiIiIiIiIiIiIiIiIiIiIiIiIiIiIiIiIiIiIiIiIiIiIiIiIiIiIiIiIiIiIiIiIiIiIiIiIiIiIiIiIiIiIiIiIiIiIiIiIiIiIiIiIiIiIiIiIiIiIiIiIiIiIiIiIiIiIiIiIiIiIiIiIiIiIiIiIiIiIiIiIiIiIiIiIiIiIiIiIiIiIiIiIiIiIiIiIiIiIiIiIiIiIiIiIiIiIiIiIiIiIiIiIiIiIiIiIiIiIiIiIiIiIiIiIiIiIiIiIiIiIiIiIiIiIiIiIiIiIiIiIiIiIiIiIiIiIiIiIiIiIiIiMhRwMa6AkeK07/66CQ/OZzrJ/gz/EQ7zqf9dJfBHBAnwnAcHabCoRGwAI4BHBwNAAgjSMIbLYRHjxH7AbxKw0tw3GXAbuvGq67Hnkv3pre5MHjh0fa54Rg/ZRERERGRmih81GjO7VvrfApz/QQsZT3ngljCAAuR4nQ41AFwMBiKXltmvxiK7waT34HY3rn7CMADDC20Luuzp2B80By2udfs8br9dt9j1zTtH7YnKiIiIiIyzBQ+Esz5xqPWNzMTIM3AemySEef6OixDCsvouJQpTgeQRj5OGPt3Nou9qtHHCv/rf6wkZBgQLa9o3/7yiooiQgO6rRdPA7gPoduQOmAPZI7xOxGatx6G6efMP3F9c0LBIiIiIiKjQ+EjZ843twR9M1FHw4TgUHCKnxC+ESmcz4AXMLBpIAOYWVIwsNzwqdw3uTujW5Tr+UBp0Ejq9SjaLSF8lB7HG6zb+mwnPH6ODH7hurHBT+Qrrsd6gv2pvp1XzFcQEREREZFRdVSHj1Nu2R7wBN8YGie5HpzpJ+ASGFYyjbNgrIfBJe5YOiQqOypqnIQPMxTXBcggxIuWwa8ttO/D23qm+ILb7w4EL1nvzusWKIiIiIiIyIg76sLHWV96yrrmdDWG6cw0C90c1PFNBNpZhzNhaMxuFQ0LCcqFD6C/0T8i4SMSPBLrx6TgET9OBqG9bBn7hfXZXQAfgcOL7nW8vuvNLZmEI4uIiIiIDIujJnyc9j9bU73HchoCdxIMK2j+CqaxnMYZsFxzvdBoj8/TiBnR8JEw5yOp1yOxbtk5JBYPHyVDxQqP91iIxxHiRxbiByAeDV7HS9aNrp1XLVRviIiIiIgMqyM+fJy8eluDr+dxcDiLKfwWA1xFxzPhUA8Wt6/NDT58ZL9whMNHf1mlRZUdcpUcPizyGM1biH3w+JllcDecPWwH7Omn3tD8GkREREREhskRGz5m37N9Auv8bBqWwPBmpnAxHU4GmIoOYSrIZ4Zo70cNw66yX4YjfCSUX7RbhfCR1OtR8jyi9UvsEemy0B5BhneDuNd122NPXdCyJ6FGIiIiIiI1OeLCx+y7tzYwhTlMWSsd34IAF9NwHEDXf7Y/v3W5no/I49X0fOTuG1T4iB+jijkfQNK0jhrCR2LwiBzXDCD7LGM7QNwB4GepQ7b1yfNaXk6omYiIiIhIVY6Y8HHqmm3psA6nhmmcD8PlMFxEx1nZFasShlEN2PsxxEnnozrhvL/84vCR9BzKhI+iAJR7/mYA0WseOyzEGmTsJ+mDbtMTFzVpOJaIiIiI1OywDx8n37bVsQ6zfD3O9ym7Ag5vpOFEgK6/rV8ufMQeAwAHWOHB2oZelZ90Hg8BkZ0HGz4GNeSqUFGUDR/R4FWoj8E8uiy0zSDWIMOfBPuw5cmLFx5MqKmIiIiISKLDOnyc/N1HJ4WTwvOZxuU0vpnOzoQxlX+8v61fZgJ5mUZ4tnFfqfej/KTw5KFXQ+z5GM75HpWGXCUFj+JDEcDr5m2debsHB/mT+ufqH3v06rO1RK+IiIiIDOiwDB8nf2+b0XBWmMY1dLiKDgsBNgAobdsX/ldl78dwDL0qFz6yBcf2GWr4KDfkKqHsAXs9ko4Z/Tb33MxC83gRIe61jN3hunDfkys0KV1EREREKjvswsep39k2tXeyvQV1tormf5vG6UUbJIUPILn3o9rwkVBu4n1lw0fkGPFui6qX2q0836O2JXarGHKV9BTiV3GH9Rixw7zdgx7eGbzCzTvftKgHIiIiIiIJDqvwMfvubc1hg7uBAS8lOBfGIHHDxLP2KA0gSeEg91jRkrslBSUVni2/PxzYyIWPkrqwypW6KoSPhLBVOXgUtiNgr1qI9dZj37Qu/t9d5y1UL4iIiIiIlDgswsep39rRmJnir/T17l0evBCOkwoXCExoiMdbzsW9BbH9hjL0qlzPR3bn5PIHHT6yZVQ932MYhlyVBreEbqX+u/tAe8K83eV68T9un23beVGz5oKIiIiISMG4Dx8nr9lxSqaB70Vg7d75uWD+IoERiT0MVvpwUvgo+r5C78dghl0llT3sPR/lwkf8+cR6cqLbDRQ8Cs8/qeeDRTfM3KvwWOt67MvukP1854omrYglIiIiIgDGcfi4+GM/t8fOPf5CPzF1IxFeQnI6jNn6VgwfQOUAUsOyuwMFkKT2vtXS85EUhCy5jogO6YoeNSF8JPZwJISPkqFnSB5uVbR/6bGLOANgvWbBduviV3GQX39quSaji4iIiMg4DR+nfHvrhMzUdIcPwvfReE5uJav+4FHNZPDY8KvE3o/oA2WGJNUSPgDAouFjOOZ8VBxy1V+vkosLFo+ZKj/kqszQsv5vy8z1KFv3wi0P2MsW2u2uC5+1fX7nk29Y5JMLEhEREZGjwbgLH2es3n5sV4N7r0/j94hwDth/3Y6CqgNI//2l8xdi+yX2UNQYPnIN/GxIqKbnA2Ua8PH6VRhyBVQx2TwhfJQ8b1R4rQYaboWyz9ecO4CMezB1kB8OuvnQY+ctDEsLExEREZGjwbgKHyfftePUcELwAW/htQRnAHSJF8QDqg8gSWfzow3xSkOv4j0f8WOUOV7lCw3Gx2oNpeejmsnm0XpUeA5JwaPsXI+kIFbm+QKAsz5j8Jg7hL+2DH785LnNCiAiIiIiRyE31hXIO+mubQszjcEnQwvfSfpjQbps+7VCPmKs4V4mp5Q8zIQ7C/dZ0WMsHCOhHgMcb4BalEqagzHAPqWb11CpxOuRxMupIZ8mBQ8AINNEOM9PCf6Ljr8/576d4+bnTkRERERGz5j3fJz+nSdcb33PBWFj8FHveBG8ryupVsmysYicsY/1fkQfAxCfs1Bx+NWAvR8JdUkYelW55yO20xCHXVnS3JLiLp7yPT0srmdVw63K1jly/KLHiipNC1KHgtfCz8x8Nf2JdW+c35d8ABERERE5Eo1p+JizZmfQUxf+FlP8e1q4orgno9IE6thmgw0gZed+FJfVP6eiunkfAy+3O8jwkTTfw1C5PJQbxoXYc44+VGGFq5qDR/Sb/DyQAO5Q8NngtfBDT1zYoiuii4iIiBwlxmz4y+w1j9X11PONTNk/ElwBH280lwsiCZsx4Sx9UXFDzFjRUFSpmklqHEZV87blVqLKH3ywT73a4FEwQI9Q5HEyhJ8U/lk4K/XZMzZ2Th1kDUVERETkMDMmPR8n3f1YA+vcGxnw74hwKX1+BdakHo6EoUNJkuZLFJ2Rt4Qz/Kiu9yO/a6ynoLSw3F35/auZdF5lz0dVk81L6l3c41BUl0q9HonBI1ZOoa6R/eLHKNxIfsyCVI/rcl9zjwcfrl8bvrLtHxcMahaNiIiIiBweRr3n44S7H5vg69yb6Pj3xcEDACwhXzDyZYCsVLbpmmsAc4DNisqxotsseXygYw54gIH3H+DpVn64XIAo/VocPKo8UNXBo/xNhpl6X+ffgRn8eOZMm7n4fU+P6TBAERERERlZwWge7Ph7Hm9Ayi6m4995C5eWrFYFIHmoUPR0eblJ0GUeS5x8Hf02drykHpT8ZuV6POJtbIt/k7R9UjcMclcILy27tOcDxdf3KOmZsNL7yvTcFOeFcoEh1qMyxODRf7+vQwPPsl5rZCZ85NiLbzy056dfLLOxiIiIiBzORq3n48S7H69HgPPp+BEibGPoI8vYxjDeUo33FCS0ZMvN/aigf+ndcvNFksZxWUmVSlaWjR+oUpgqurvauif0UFQ796SW4JFUeKV5HiUHy21TNngAZgRT4dRwVviuzIzwz0A7rszWIiIiInKYG5XwcfJtW9NE2EbjR2n+fOYmlzN3HQ0iabTVCAWQpMCTtJRvUtnVGtaZC9UWljThe4A5MiX711jGgAUPHDyy3xOcFM4IT/bv4QTc0PRP22bWeFAREREROQyMePg46batQSblmrzDTTT/hv45HtlWaT6AAIMJIAniASSpGyJeTPQ4jH2N7FbmRqn8GKnEoFN516LtKmxrFYc1Jc2dqSS/cZlhYoX7ygwVK9w3iOCR3zpN+GPDWf44/oF3we/M/+Q2rYIlIiIicoQZ0fBxwne3mQ+CU1gXvJ8pXFo8uRyIBoRoACme3F0pgAzUw1EugCRtX6YnJfp9TZ0Q5YaUVbVzkaT5HgMWWnYVr/6v1Q25ij1edq7H4INHnp/oLTwxc6pvwA0wd8WCT26fWLlSIiIiInI4GdHwkQ5shq9zN/oAb6f32cnt5SZERAJIdLOSnonoowO2yiu09Flh9asy1whhybJX1R0qqazByzfsK8y3qOkwFYJCfGngASeZD1BeheABAAgAPyN0/pi+BST+1ANvaPrnrfUVKi8iIiIih5ERCx8nfm1rfW/a3k3HP6LPNBQ9OFAAiQ3DKhtAyk0MLzd0KumYFY8xeExsgQ+UUGoYK1VuJa14OUkTzYtulhvfVUvwsP7HBhs88iU0EuGsMMXALyXsTzxSixd8csuYXQxTRERERIZPaqQKDqelrmSAvyTDyf2N0tjcipJ5FNlAQQMs3wuS24+RfaJ9EdmNEyqQLz/+tWSj6PEHRjA33yJfaCWRYV+15prB7FPNDiUrXFVRTLXBo9Ixq5nUD4ApgMcQnMx6ew1vIPg84fYAeLyqAkRERERk3BqRM8rH37Z1OVP8MOFPyN5jsV6FyHinpCFO0U6N/ATy/BwO3z9iqtA/UjSxu8KkdMa3RdGB+odVRSrA4npliyk3XitBueWEqxINYGWUDQoD3Bctv+xxBxrCNbzBI39ITiL8dA/QTyFwJcxdO++T27UEr4iIiMhhbtjDxwnf3TabE1IfIvw5oC9ufBfPJC9zf0IAKWwXDS3FQ7PKlp0otrpTSUjp74UZtPzuSRO5qwkkiY3+pP0qzL8YMJgkHMTKBY9KE8zLH6/64MHCS8V6wE8lkAZAngDid2H2prP/+dHGKgsTERERkXFoWMPHSV/d3Ojr7P3e+TcWh4uknoT8sKWkXoTc45Xa/7TSnoxoL0W+7KLelXjvS2npLHsrFlSqmlcSV2Gp2soP9D9ugJVbmaowNm3AGiQfrpoekqSVrcqUVVvwiBQQEJhIsJ4AaATPBvBuAxfP/8TWoMpCRURERGScGdbwkZmc6mDKrof3E0ofzQeFxC6NMvdbYbfEzoLcUC6WDSCR45YZmVVct8jD+WFi8X0riW1n+f2HTX6+SdIBLXl53XISg0ek1yPpGKMRPHL7cwLBxnx4ZEByBcjr6ezkKgsWERERkXFm2MLHCd/e3sI696cEZ4EVLhpRmMOBXO9F7MF8QCmITC8vF0CYDSDFczHiK2Al9ZLEjlHSli4fQIYzUlRSecpFfMWrhCWtIqtdlcwRL7odCx7R+xIrMkLBI/9IPcEJRb1njQDaYXbpvH/eNqXKA4iIiIjIODIs4ePEW7ZMCxvwlzS/CMxfz2OAU++FIBAPIIgNHyIGDCCRMhi/v+S45SrUv3pV/zyS+MbRkEKQxaGl5FC1JJRoUKhabO5KSUIaaJgXKgSP+DYJxx2h4AEgO9+jHkVPieQJJG4gbfH8f9oxYiu1iYiIiMjIGJbw4SfaNQzwJoC5CcH5JFBNAElMDQkBJLZbif5eiuKpDzUt/4TiABILRgk9KqRF578n9JBUDijVYyygVFFgUhAo99QrXc+jaOfhCB4V5q3kOQJpxo9jABYa8E4aT6j6YCIiIiIyLgw5fBz/zc55vs79LsHji5uK+XkcAwWQMt8n3Y4+lJhAigNIyWipQkAoE3iSemGsv8ziMhJ2Taxvwp219ogUvo0PsypTaPSxSp0f8aFVFcsaevAw6/838MaRf0VVY5pAO4E3zPvkNq1+JSIiInIYGVL4OOFLmxrChuBPPHkOwDLDYHIBJP+vzCaJ3yfdjj6UeM2O0rBQlBfi4aGkfFfcGVOplyV63HJ5ZqCxVNF6sLhxX/UorISwkTgSq2S7aud5DE/wqIkh+9OZtB8xHbD3AW7O4k9tr3mwmoiIiIiMjSGFj3BGcDmdXQZwSqGjg/1t8f4maXTgfoUAUi4QDDmAWGIbP7n8pJ6KWHklm1YxvKzcc4iGhaJiWLpdPFgUbsS3Le4hsaTy4tuOp+ARPWxyb5IBPJfgOw95TBtE6SIiIiIyBgZ91vjEr2yd2Tcj+AKNKwHWlzRQ843HkrP4+TsqNFoTG9mlZUZbpknLtZae2S8+prlY90C8XIsMdLLINpariEV36h90ZmaF7a0wVyPWyI/XKbJPfhuLbh+vbzQcJC2xGwkrlvRYydfxFDwI63NIdaYQdAYVIrK9ZMBKM1u/7UNnh4M40lFp6fJVqT7PmSF5KsHjDDYRQCPIiQTSZugh7ZCBB2F2ALAXXcrtMude3Xj/d/1Y119EJEnLilWOHicxw9PMcbp5TqLZRBobDeZIdBvQBcM+0HbD8ExDY+rFDfd9t3us6y5yNBn0ikGZyWgnuCwbPIBCQzWp9yI/H8JyjXFEhmAlNWDzASM/7qkw7yL2eHSFKsZWTyL6QwLzZRT3EvTvE6l7NFDkRowV2ub5x/Jlk7n6l0xM6P9/PsBEn1PNDfIyAaO/W6OqIkrqWHiN8hvEQk25fUcieETfHjMgBNA34D7HEfhTgu8H8FoNRzviNbeutOxPvTkzayJ5EcHlgM3vyoSnAZiM3KvOWBdetoOP+S8AyLDPE8DepqXtO2HcAtr95vAreDxKy6771rl+zcA/FCIiQ9Dc2m4AkWmYHATdBxcYcBHJC2CY7/vCMwA0wGAkLNvMyA59YPTvMnMNA4JdB3t7m5aufByGDWb2G4L3AdgBb30wYMv61fpcExlmg+r5OPF/Os/MTEp91jteBqDMFafLnI0vfBu9UW5IUKSspJbsYHpAEs7ylxRtpd8X9UJEey0KO7N4P9e/n+UDSrS+LlJGYcPiOltke7PI/oXXq8pej2hASnw94vUv1yOEkQ0eEW6vQ+qRFNwzboCfUjvkgGsN+NHWm+dlajjqEad5aXsAIE1isjm+mUA7iIsAzED5GTSDRQAZg71I488MWO2AX3piP+D6OjfcqR4SERkWzW1XOXiXIjjRzC4CuArEJQRmYQgnURMQgDfDLtJ+BMOa+r7g/t502Gs+1bf5odsURESGQc2NkeNv3ZrydfaXTOGv6Thr4CJijevYmX/L/3/AAFKmtlUFkGgDvYoAEi8zPvwqOoSqqGEfKTMSPgq5oyh85B+I1oOF1ym+vUXrXQgZkZ6ccsEjHtyiAarkeUY3Gq3gkfDeG+BedEhtSMG9OtC0JAOMPwPs2h0fmvdqDUc+YrQsba/zxolGWwGgneBVAGZiGC8iWoUMgGcMWAPYXTT8xoBDnetXD9R/JSKSqHlJR0Bjoxnng7aS4DUATkP2SlCjIQTwqJl9A7TvGvzz5oJDm9bdoZMrIkNQc/iY9a2t5/h6+xQd34hoE7tiSUlDhlBo41q0pT3QXJBBBZBYr0SZBm9R2zuh16UkgMR7QoqCQeQpFXoyItu5SFnR514ufMR7ShA5fkmdI1UqCVVlgkfh8cEHj6H2dhQQCJ4KkHooBeuqqtBemL0Lhu/suGneUfNHobm1o5700wx2AY03gLgAwMQxrhYBvAaznxrw3yQ3ONjezRsUQkSkOi3LVgX0fjKI+QSuB3g1gOMxvL23tfAAXnbALTS7FcTOIB3s3/jA7eoJERmEmn6Rj/ufLfVssPczZX8D48zkEisVWWbycu4+Q7yBnbzdiAQQy20fWe62MCUi3nGQ38/l01P+kcgxouecLd/ejwYGAgYWnnTRhPPoZPPc7dxzYf6xaFn5OrI/WJT0ehQFlVhw6X9iGPPgAQB9QGp7CqlNqbKLdCUc/1cwe+v2m+a9XkNNDkstbR2B9346YBcCfA+ACwFMwtj9YU6SDSHADw34KgzrYfZ657rVR004FJHaNbd1NII8C8DbSb4dwCkYP59tHsCzBvsKDN+G4enOdasPjXWlRA43Nf1Cz/zmlsW+wX0CDpcCcFauZVjUkI0fokIAyd1vlYZh5fcdoQCC2MOFRr2L9H4krlAV7f0otP574LAfQK8BPZYKDiJw3RZ6j76QAD0cDM4M6cDgkIb3jfThBDPUwZBdhcgQwLLz4wqHyQefaL2jvSblgobl6zpOgwcA229IPZJCsCuo5Se0F4Z37fjQ/G/VUJvDTlNr+yQD5pF8B4C3ATgB4+cPcxIC2GmGWwC7ncATW9av1soyIlKkpa0jIDAT5CUE/wjECoze8KpadQNYb2b/BuKnzuHlTTqxIlK1qhstM2/Z2sAJ9l6m8EE4zOovoFLDNN84LxNAKtTAipazTS66UFbJnIbiYxQFkHhD2pU2xKOxKbvaFSON9tjt6FCmbAP4NYPthbk9CPksGtOb3YG+PW5/ZrcLbGffse4562Gv9Xp4Z6SFgHMWBM65jE1DH0+j42xOSc8wx7lEOBcOs2icDnIGHCf1T0GpFD6i91eY8zJawcNiX8sh4J53SK9Pww7U2KY23A/Y5Ts+NG9/bTuOf83nXm10fibAy2D8IxCtAOrGul416AbwMxj+jwH3pVxq3yNrNWRBRIDmtvY6EGcT+D1kT6ycMNZ1qgIBPG+wWwHeQuCxLRvW9Ix1pUQOB9WHj1u3NLPe/T0DrER0UFG0sTtgT0iSSj0P+SFDNU5GryWAlB2CFPveYiOYjIA5wBAa8Aqce8ZCPAHnHnIHw63IZB5ib3qvZQ70PHvt0prPiMz5+c8NmWNToUODC22unxE007EVacwD/BzQz4bDhOxQKyQEj4SJ8GMVPGqY9my9hmB7CqnNQdVDriJ79wB4+46b562udc/xrKl1ZQq0OQDeAfD3AZyK8d3bUQ4BbDOzLwK40xEvbtqgs4UiR7OW1o4Ggq0k/xRAO4CGsa5TjQ4A+DGALwN8YMuGuw6MdYVExruqGjDHfnFjGjPT1zNtH4fh1EqllO8JKdcLAlTsCck1kCs2hJPOqlc7BKvs5OvSRnl+GFZugny3wZ4BbIsB610vfuEOhVt7JtW//uIlc0fkgnen3dtZH3ocj6mpFUz3XYTALQL92Qw4o2hIVtFrmNBLU9hmhINHFUOs4twruVWuXh7sQk12D4Brdtw874g4A9Xc2lFH+mYANwC4Ftllc4dR/89/ZOBg5JsR6Zx43mD/ZYavwbhr87o1ukCkyFGoqbV9ogG/BeDPSF6Cskv3D5bFTpBGP9aG9bOtD8CDAL5oZj/qXL9a150SqaCqpuHMr3ee4ie4mxHYH8AqjMGsKoREt6swHCteXr7xTCT3hAwmgJTrEShXjgFm1mVwTzhgPfr4c9frf5GmPffkWxeM3jUmvkM7+bSHG1wmfQ4npi5hKrwQxnNgPK74OVSa51F78Bj2IVaxfazXEDwaZCeaD745ug/AZTtunv/AoEsYJ5rbVtWBfjHJvwRwJYDGIRdqRhBdZngVwH4A+wA7AEOPAX2AhQQDAHUg6gFORvaChFNIzoBZfWFRhqHZD9hXzdnnnXM7Nz14u3pARI4izUvbJxC4zAw3kWzFUHtzswvGdJnZHmQ/217Pfbb1GqwXAAmmANSBnARgCoCpJKbDMBGEG2IgCQFsNLMvAVjduX71K0N6PiJHsAF/2Wd8aqOzOem3IGWfpENz0UTmAUrtnztR63CsciHA+u+qNoAUblcTQCqED7OM0Z42s59ZaD9wh/oeDHszu3dfc86YnrU9/dat6XBOZj6npS4D/KUw30qHyf1XX8/XP7JTtNdjJIJHrX9CclVxexxS61Nwewa6sGBFHsBXDJP/ePvNsw/bBm3LspVpeiwi8TfIDkWoH3Rh2cCxB4YnzexJkE+ZuacAe5kMXwH4msG6jNZNQ0gyBUMDwQkApgcumEFipqc/zcydAu9PBzCHhulDDCIHYfZfBvdZmD3duU4BRORo0LwpKKGCAAAgAElEQVS0vQ7AJTB8lOSKwZdkQHZVvZ3m7AmSu5wFTwJ82dO/bOReGLpJ6zFDCFja4BsJTIW5GQabRfIUGOaAPIPEGQCORfYEzGB4AJsN9nkAd3ZuUA+ISJIBm3gzb9kynQ3u/QzwATg09DfirfLe8fkbFXtCyhVUZmWsyFyQkj2HP4DQzO0F7ZfmscZ1+Z/6V3qe2f3uxeOqoTTnF480oCE4h43BVUz7K2h+AehTxWGg3OR8DD14DKa3I7K9dRlSnSkEOwYz16PEU6C7ZMeHz35iyCWNgUVtq1IhfRPJmzCkMdAWmmEHzB4C8RuAnQQedw4v0/q6Ox/8XtXBuWnFVSmXsXoPO97BzgTQQrMl9H4xgDOG8Md6P8z+ywX2aefc7o2/1iR0kSNZS1t7AOACEn9P8kIM9lST2VMGewjABoAPw7jdDC/1pSb0bL//W1V9tp1zTnvgA5cOnZ/hgDMJWwjgXJDLAczl4D7XPIBHYPYZmN2zZd2dR9wCKCJDNeAv/bHf3LIUKfdPDPDGku3jw5rKtVIT7k4OI5UCTcIyuYXvYyEk3tjOTzWpKoBE9jcXGvGE0X3DMriH3Zktuzuaxu1cgjN+uNX8VBzjJ+FipvzbYP5SBpyWPTudf/1iA/xz35cPHrHhWklqmZ6R9P5mgGBXgNQjVV9UcCCHDPah7TfP+/xwFDaaFizpMDOeCvBvAVyHwQUPGmwHzH5ohvsAPkyXer7zwdt6h6ueC89dWY/AnexhSwD+NsFLQJ6OwTUk9pm5f3WGT29ad+fB4aqjiIw/C5d1zPOenyX5ZtT21yPL7CUD7oPZD+j5gDO/a/P6u7qGo27nXHhtXdgdngCwlcBvkXyLGeaw9h7eEGYPGPAxA365ef3qYfvsFTkSVGwoHPv5R+o4q+5tSNn/B8NxlUuIz9cYOIhY0n4V92d0LFdxQWVO6JeckS96kGV7QMxZD+h+YX3+K0E3fzxt4/xXt3xsgFnY48ScB7bUsYFnoR6/wzTfTgvnVprPUvatGo3gQcC95JDekIa9OizBA8iOvb0XKbtyxwfmDcsfpdHSvOzqY+D9X5D+L5Adk1wTM3sNwJ0Gu8eDv+5xE19+fO03RqyXrnnFqsAyPImGC0CuBHApyak1F2T2ooN9cEIQfH3dg7eNq15FERkeC5Z0THGOnyH5+6j9Gh4ZM1sLs+8A/DEQPtG57u4RadTPX7LKuYDHG3kRsgt9XE5iQo3d8r0A7jLg4wZs3bxhjT7XRHJSFR89Jj0ThlZYhRV2CqOw8j0MuTtYpjck8rvL3Jn4xF6Q/NW6i1j/KhXRABIZCVZyM79d9BDW/w0ZCSDMDrsyC/Zbn/8WiK+k9mYefva6lp7nkp77OLVrRVPvad97ZKs/Mf1FA3ch7d7DAK3wPhUPIYMOHrXM7aiwnXvdkNqSgr02bMEDyK6YsgAZtAL4xXAWPJKa265qoM+sBO09GFzweBhmXwN5t/Puqc0P3T7i85E6H7gjBPD0wtb22z1sE4BOM1xPcl5NBZGzaLjpYNj3OID7R6KuIjJ2Fp+/MtXXy/eQeBtqDx6vm9ndAL4GcG0qHRx45P7VI3YycNtDd3gAz5+7vOO23tBvNnMbAd4A2OwaekHqAFxK4DGa/SuAl0aqviKHm4rjGRt/530L4fBeOjux+qZhrlUab9VW7AnJ7pO4hZV8U/x90k5Jw7zKbcdsI9tyQ74sSL+ODD8fHAy/EB4It7xwfcvorWI1jPbe+m+c/K4bD1oYPm7mnjIXTIfDqbDcGNYKwSO/Elbyw7lQOAzBw/Yb0htTcM8NyzyPuMCAfXt++sUfD3vJI6ClbaUzuEWAfQrg3Bp3D83shzD7tBnucoF7cdO6O0b1LNuLz28PZ52wYI852wbDcwbMAjAbtQ3DmmHmTjvx5Kbv735u26ERqqqIjIFjZy24AIZPAZw18NZFXjaz/4DhizB7uHPd6q7dz2wbkTrGvfDsdv/S8ztePv6k+VsIewbA6TA7voYi6gGcDLPOWbPn7Xrpue1aVlwEFRoGs/5tc0NmWuo6pvE5GCZXvWPJRkmrUpUPIv2PxPcr1+Bl6f3lzsrHiygaikU4l95nHh9Hd+83drc3v5hcycPPnF9tmoCpwVLfwL9g4N8ChA1lw1gFBlQ/zKpSWZbt8Qh+k0LwfDCUZXUrCQGsD7y/bOtHml4fkSMMo0VLV04Nzb5E8u2oZTCbWY8BdxjwBRge2rxu9ZjPSVqwrGOS87wQwPtJ/jZqOstpfebsH6xuwj9t/tWt+kMtcgRoWb5qms/4rwO8ArWdkHjBzP4dhv+m4zNbHhy7oUvNbasmAvxtkh8B0FbDSn/egB8a7MYJbsqudetuOSyGb4uMpLKNnHCSmwHjYhATkZuvXDRkqvSuUkS2Z4H54VK5VFBuJ0bLjX8+MTsUq+TiQAnllasYY3ez/6tZeh/6+NfWHX7lSAoeALDrgoVddjCz1rrwSddta8y77DyI6Os0YPDg8AWPPQ7ptemRDB5Atldvtg/c0hE7wjA55cx3udDZSmSv5VHL9eAzBnwbwL8AXD8eggcAbF175wGY3WvAp83sp8iu/lIlpkHewN6u1hGroIiMKob+OjNcjNqCxx4D/hOG/wBsTIMHAHSuu+MgYD8xs48b8JCVHTpQwhG4iIY3HcL+CSNZR5HDRdmGDh1OBHEhAFeUNDxKkke0DVs+jFhsQ/b/Kzpw/z/CyoQQQ0nLuRB0YuWUPLF8humvvAXpg9bHj1h3+M0X2ufvLfsUDmNPLl/U6/aFG91T9i/BC6nvu0Ouqoaquew/uCq6RSrNA8m9ZcFjAdL3p2EvuZEMHnlTCXvjiB9liKZM33ciiJtIlvQwVkAY7ka2x2Pz5vVr+kaqfoPRue7OLpjdD+DzAGq64CPJE0F8sHlZ+6SRqZ2IjJaW1pVnAvgTkhNr2O0ADN8yw1dgeL5z3Z3jYrJ257o7ukDcB9g/A3i8+gtgYSLJ94CcOYLVEzlsJIaP4z7/mzSAUxlY8thzJvxDaVu/bBDJ94IUBZHyx2FJyzbSRVL4JjKGKhpAPPp7X4rKzk5ztyDVYz3hP1uf//ruqxcc0ct8PnnBoj63ExtT2/Avweb6e93zqT54lA8MbqDeLVY38dwAe92QfjCN1MMp2OtW07nwIWgEuaLpkztq+aM3quZefrmDxx8TOKuW/czsPgM+B+CRznWrx+W8pM3r7uwJAvdzM/dFwDpr2DUAcCE83jJSdROR0eFh7yZwJqrv9cgA+KEB/26GpzvXjtzE8sHoXH/nwcDhp2b2BcteSb1ai0C8qWVp++AvGCtyhEgMH35q+hgYlsIwcKMtoUeEkccGDiD51mukJyShN6TscKzoweI9IYWH8umoeF8zB3Rl/t0dCv99d8eR2eMR98SNzRm3GxvsGf8vqd+kHk49lKLbY0UvHQDAWf/1FhPfx4S5NnGGwsUD6+6tQ/BkAOse1lWtBhIAOCGkXziaB61F48v1JwK4AazhYlaGJ2H4T3Nc27l+9bjq8Yjb+OAd3XC8G+B3ALxS7X6knwqzd7csa6951S8RGR+aW9vnArgKZA0NbttssFsAbN20bnwuT5sKbC/JuwB828pdJKtUPYHrPdA4knUTORwkhg+m3FSYLQSSV8EtKzpkqmLDNWm/hMDA+Db58mLDsYp6YCI9IYkBJHfbHCzjfmwZ+xwOhC9X+xSPBDv+tikTdmV+aQf4X8HO1NOp+1JIPRDAvWRAhkBAgD73cha/bsz/V1ilLPbuGgAP2D5DamOAuh/XIbUx19sxNtOHp9FsyZgceQBNTdc6Gt5LMPkaOskOGuxrZvZ/N69d0z1ilRtGnWtXHzBz/w3YDwBUG5ZSIM5liDePZN1EZASR1xlwCqqey2Yvm+EOZ/aTzvVrxu2CEw/9+g66gM8Y7DsAtlTfqcNlZmhqaeuo/eKKIkeQ5Ot8OJsOoDVxIkc1v2PRs+jRtqv135VcTPwMPGO3rah8mkXKi4eLfACJJ5jcwx7Poif8BxzMPPXCexaOq27d0fDk3y7sPesTnd8ggmZ027vcTjcleNLBTyf8SQRne3AiwXrLhhH0v4d5+XkzBgK9BjtkcC85uGcc3MsG9Fhhuxom5w23KQCXA/jCWFWgHJuSOZ4Z+0PQV//imP0Ihts2r73ztRGs2vAze87Ar5NYAGBxNbuQfpoz93uLlq36wca1dxwY4RqOmLPPv86l+jINzmca6DgBhDNjr1mqx6fsUPeUg32Pf//7R81n0JIlV1pfOqgDrTGk1RG+Lnvy2PWasRdwXbSgZ8sD3z1qXpNKliy50vWkrQFM1RtQz9DXE8ykgqDPe/bMmDh1/733fnXc9RC0tLafSuCqGuZ6ZAD8yozf2LRu9bhfanvTg2syza3tD8HsOwaeTVa1ql8jwStJrgcwLhYIiVty3tX1YRg2+NDq4YJ06DNBQMv4wPVm+nzvRJc5+NBDd4/bYDiaLr3scvfi/vrGsA8NABvonTNjBs76HMOuBpt8aO0IXuS3GgvPv6oBvZjAwNUhtDpkTx73GVyveXZt2nDnmFyIuaTRM/PLmxr95NTbWe/+D8DKFyGstT1pCTcHLIP9G1r52JINNgln4aPzRPLbWarLesI/d4cy39z9zpYjep7HQM7+ROfJ3tJfoe+7GEQq33MBAphEYBLgpxKYRLARQDr3foQG6wLsgAH7DW6/gx207J+P6DyQaOeIodzVXEYSAax1QdCx7YNn7R7tg1fSvLT9r2D4NKsfcvUMzP4WE9Nf23Lv4dcwW3zeqnRfb/hPBP4IVV5E0Zx7GuA7O9etHpaLRV73uze6J3ftTQ/UH5vJeN/V1ZfZsvH2ql/nlmXtxtAbgEaazTWyGWbLYK7JYNNJNgJsAOAA64NZtwH7SL4A+u0wW2uwTnh7ho69nevHxyTbwWpu7TA4FwCYwjBzphlaSDvHnJ1uZjNJTgJRD7A+94HRC0OvwQ4AfIXePwmzjWb+YTO3k9720LzvXLdmzH72/+CGP7edO/cG3T2ZAX9nD07qzWz+wW1VN9KaWzssZeYy9McSPBNwLQa/GObmAnYMyAkAJgCsAyw0oJeGLoO9SvBFko8YsBZmj6d8+rkMevs6N4zdfImmpe3vsuznW5U9u7bLgH/o3LD6KyNbs+HTdPG15g5lLiL5LyRaqxjnATN0AljeuX7NmLU9mlpXmhlSBhxD2mkEW0AsNGenA3YcgElG1NNQlx0SbBkAPTDrNWAvyd0gd8CwEY5bw9A9k3LYR5Kd68d+js4FF1+XymSs4u8oCYQe4YYHbh1wzmRTW4fBewvMNYbg2QY7h+QK59zZBKeCmABwAmABgAwMvUY7RMPjZPifW9av+d6wPbkELW0rbUIdgu4+TAPcHO/9YtAWmrMzCMwyYmLuvawHYDDrMaKXZgcN3OO9f9LMNhF4yAxPIuVeQZ8PR/K9LAkXfkowCQEWAgiKG/r5hj+L78qr3KVRuj3Qv2iVVdot3xsSO77FDpifmB4NIfn9omfdzdF6wtvQhR8d7cEDAHZ8uPmZuf+45UtwwVyE4RyQhZWtrMvALiB4Kb9ccmxiiKG4M90Iuvyjxb1U+e+ZC5OjGEIMwDHehy0Axk34WLRs5SRP1+59WG33e24Spv2w8zAMHgDw8K/v6Gtqa/86PJcBuADVnHrwfppzwZUtb3j7/Zvv+9aQzrY1L223zTuen+9c8DWSFcoiAP7S6vhvAB4fqNyFbR3O0zeAOAvmLoVZu5HNcG4SSND75DlT+Y5dM5jZytwn18sWcAfA2xcuW/VD7/0uwPV0rh/di0YO1sKlV5tHWAeH6SCWwYfXwuxcmJ0KswmGCq9H7kvhU8ayZzFI1wfYUwA2AvhW89KO9QB3B+lU38YHbhvV1+WhjU9PowV/QqIDJX/RivFV/6nmto47O9fdWXa7ha3t5oEUzI4DsTxDvgXABWbuVJD1pAFMeoos/HmLvF5Xwywk+VJofWtB3NPc2v4zwJ4nfO+W9aMX2hYtWVUXmr+c5NQqd+mB4UFnGNFG2nDbcu932dza0QngJ2Y4l6x84WYAIHGWOXcagFoW4RiyltaOgMZ6ACeQOA/AFYSdC3C2wSbAAPr+ubOFZhci35T+fhIeBwJnjwNcB+CulqXtG2G2B2Z9m0f5YrcAsHz5W4J93X030fMyVLzGFLsJfg/Ap8tt0dza7pxZfQicDeAqb7jMiHMATDADvI//GSl+nQw2EUQtw6qr1ry8wyFEnTPMJLisq9euILEM4BzATYAR3vv+WsWmIUQ/P/IjUwzWDeIZy3AdgXuaW9sfNHI3zHo3r189rO9lac+GoRHAfBRa/dFT2NGv8SQR+1rL8Cxm27aVR+bkQ0h+7FY+hMQSD7PDsbJb5n8QWNjEMnjSQrsl/fqh56uo4VHBpVLf96G/AsB1ABpJ9sc8s9yaAPkhVkD0w8ksH0qs+EeAjLyfpYsE5ENINhuOeBCZAtg8AOPmaucZbwsNPAfV9x8+boYfd66/84WRrNdI27Ju9aampSt/DqAJwPQqdplE8nwe7DkJwNNDObanwYBG0i8p/aNR4nkzNFTaoPWia6yrKzOJ2c/LPySxCrAZzH3gV30Rsvwfguz/Z5KYaeYu8OBuAD8A8OXm1pXbUuYOPjJOlhyNW7TsKvPeNRI8FcTbDW4VwfkAXP71YPUXZYtsTwBIk5wL2FyDW2Vmj5K8i563Nre2P04LDm1Zd/uovC6eliJ4CulbB3p/zXFGucdalnWYEfUkTwZwKcjfBXAOsz1B1f/sRDC7WEsA4AQPtJvhCgCPAvw2gNubW1fuNOd6Nq8tH4aGi3dhC4kmAHVV7WD2nAHf37Ru9WF3jS167rXANoDcieyqXgNJ0fO3mpa2b9kyCj1TLUvbUzSbQqAZxNsAu9yyv6cBE4NtdXK/nwZgMhguJmyxmf0eDTsMWA1idUvr1TthPLR53R2jNkyrvn4mDnYfmO19ZglQ8TP8IIBNSQ8sXn6N9fq+RhALPPG7BlwDs+Ppfe5k4did/1u84hqX8eFEEnMBtHvyagBzSdaXNsSr0//ZzAYAZ5J2phmuBbCTZrcBuKOptf1xEAe3bBieEJJ01nUqgHMGfhIW+QckNTCL/lUqKvcYPfoXuxpg2/6LF+ZCSfTDOrc/GakfAaPrdd3+625f3yPP3njuuFyedCw8etPZ3cbwC3C2i5EOKQCRNyPfPGLhlhUezz5S9D4Xpu/EJ6WX9pwRLDQ0WPGNH7QpIBc0fapzzCaeRLVdtCpwzr2N1a8AkwGwAbBfjWS9Ros5dxeyPQrVfIg5ALPNeH7TimvHxfsHAAvbOup7e8KzAXyC5A8Au4HkjKH8MY8iPej98QB+H+A9AD4ekgtaWldVDERjoaXtqgZPOxvABwh+D2Yf9T5sIr2rNXBURpDePMOzYfhr7/1qAB82cl5za/thc/G25qXtAT1neeIaArcA+N8klxU3HoaKIJkm2UTgowb7KmDvAHH8wrZV1a+sNwjNy64yT3uDmc1CdSdX+kBsh+HekazXSNny0OoQ5HbANlZ53Q9n4Dm1reZTu5YV11pLW8dUmp0H8jMAvgvgRtKfTjIY3t9NIPf7OYH053jwowS/Q/gPAly4aNmqxqYlV47K53dvb1e0YVqzRcs60qEPTzba+wDcSvJ9pD+R5JguEtDcusoWLrt6Quh9E4i/hue3Sf9Rkk3D+9kB5D4/6kjOI3kzgG8b8FcAFjQvbW9oaWsf8ntZ9GLO/NJvUgh5PM2mFYcHRv4lFRMNIPFQUnguxV/LyQeHyGGr2b4wuTy2E6MhpJcb0Ifvp17pe3WAUo86zBzYDLjvAHawJAAUXmOW3F2yYSwEsvisbpmD574MFDoHrxHAad67cXHRuoNdnEbyfAw0p6rfc2b2i871q4+I3jqXwiMANgCoalIp6aeZcyvMh9WdRR1hza0rp5O8Mgz5DQI3kjxm+P+QZ5EE6WcC9uceuAXgypa29mMXn3/VmAexpmUr3cK29lmArSTt64R9mPRzhiuAVULSkf5UwP4K4H8A1t7Stuq4lra3jutVhJqWdtTB0ALgowA/T2A5yWomKg9eNoS0EvgUyZtIzm9pXTlixzTaBDO0kax2mey9ZvhF57rVQ+rZHGPPAthowCsw2zfgv+x1nUbsd7hl+aoUwsyZBG4E8A0Y3k3640bqc6oEGZD+LIIfJPHl0PvrzQWzm9vaq/2bN2hBkBp0S6Kltb3ek0s9+SkCH872uI5t6ACyw78AzvLet3vPL5H8CMlarp0zFC53rA+b4f+HYSWBY5va2of0uhT9ILA+3QjaubAyq2Blt+p/W4uedtJrEB2iFTkDzoRNEg6Tf5zsH0bFcvND8gEEyA4RyjeW82civOu23vAee6X70Wc+eO64HLowlh7/2PJw7j9uvBUudT08zgRo0eWMs70ciA15Kz130z8sKz4ULvf+5e7onxcS2xaRLsDhmxtiAKaT7nRkx42PKSPOhFW9/CQBbCNxRPR6AMCmX98ZNi9d+X0ClwKoJhA20nOBGY8F8NwIV6+s+eetsiDDE0H/hwRuJHgsSi48NDJyixKcQ8PnQPxHps/956Lzr35m4/2jM9wobv7SlSnn7QwP/DFg7yQ5AyVXch15pK8DcJ6ZOw3gf5Op/25advWuLWtvH3c92y1t7fUklwG4CcBl5Ci/XuQMAn8Cw0zA/rV5accjnRvu7B3+4+A0Aqei4nj7/q3N7Dkafjrs9RhFlg4Psjf4KYDAUMX10cy6MUKn2s5dvmpCj/etjvgwgEtqWNBk+JEpgsvM7CyYLQbwlYXL2zs3Pbh6xFb6Guww7ua2jgaS55H4IMjfRrnVYEdZS2tHisa5IN4N8D0AZoxaiIwgmTaziwHMB/ElM/zPouXtT218cPWghtQVh4+GIA2H2ah2Te6iEJHcDC3+PmG+SKXdCo9Hz51nm7BmkTBTUq/o8QjAwXq4yXpwP57tez15Jzngwp0TmVoD2J8D+W684jgRmT6TuxELDvk94pPTER3KlX+LGCm9eNv+7Rh5ZEh/qyfnGvxjGj7mtXWYARcxu3JNNQ4B2OrS6QEnPh9OzNk6ej4FYA4w0CRNC2A4gcRZGKPwsfC8DvMZPxewPyXt3UDVE2mHk5GcBbMbQcwI+8LPNy+7+tHOtaMbQBaft6q+r88vJvAXAN5aw1KqI4b0JwDuvYCdYPRfWNi2avOmdXeMmwtwNrdemco2bOzvAVwwUl28Vagjea3B0jB+cuGyjk2b1t45rEGNsPkGHMfq2hE9ALY7w47hrMNo2/zru0MAD+T+jZnm1pXTMp5vBfG3BM4ci0ZqEpLHAPhDM5xC2hdalnX8avPaO0dkwZ8gSAOo7RJYLW3tKYJLAPzNuAoey9rTIBaDeD/Aa0iOae9/7udplpl9EMTx3uOLLW3t2zevqz2AxD8c6kmcOahGHuP/okOg4r1g8eFZllxO4nFYGN2Tn+9UcbgODRaix3r8T4NXu7fv/swy9XqUsfvmc0Nj5hswt4fRpFAU/lj89kSHuRXmbUTfxtg4ulixLLqZ8CbmtyPAyH+DMJnZi12NqYBoAGxpDfM9ngWwdvMD3x03DanhsHnd6peQHXpVxR8gguR0wM5dNEYX52IGp4L4K5JjFTwileExJN8B4gPw4VlLLlw1amfQFyy9qq4v488D8HEAK8dD8Mgj/TEAfwfkB0guXLjs6nHRgGhuXWmAm0/iYwDHMnjkpQi2A3yvJ09dsGz4fqeazr3KgVica2xWYz/JdZvXrt4/XHU4WrW0tR9D2O958l/B8RM8Csg6er6VxN+RuKS5rX3cXOmd5Ckg3kXyEoyT4NG0rCMArJXgPwC4fqyDR1R22XjcQOKDnnZWU2vtnyFFO5BoQPYiYEgOCIP8GxcNJGWTRcIE9sJk8oRdCiGExW3bhG2t2z/jDoXr61/PvDK4J3D0COobtsLwazP44s+u6AsbDSP5uxjbNn4rElCs+E2Kl1M2YBRll5o/WCdjHIQPI6eTnI8qhyQAeNYZfjPC1RoTBvwSwN6qNiYmm+Es7zHqE4ubW9uPJ/lHJK5G9UuHAkCI7JndbgBduX89yC4gMNSWwRSSK0Hc2NPjTxtiWVVpae1IO3MrSHyA2d67wU5+98i+DgeRff/3AHgFwOvI9vT1YpCvD8lGAlcQfL+nb2pe1j52Q05yzDCTxN8AuKiG3TyAPmRfpy4U//z0Yeg/PykS19HzGvO+2rkZAzKzSTCcjuw8u4HQzF414MHhOv7RqrmtfRqJdwH4SG4I5FCKI7I/Y9HPrehn15DQ+xUgbzbYJS3Lhn8BjVrnnLUsXTkRxJtIXolqV2cbYQvf/GYzYgmJvwPx5iEEyaTP2j0Yns/aFIDrDPyAGU+tdf9Cwjvmf2820iZZyqaXjIIpul0pgFTxHBj7JnE51qTvWVwPxjZj0Zf+h7zBesJH3N6+7U/+Q5uuyjmAHf/r7L4z/rHzDsI6AOZWq7GERTyKh8LlWeL7a9mQmC+kMHQr/54mDM1Cf8AomnkSDyDVzwtpBHjS/M88mtr2N2eN5XjwU8xsKqubK9AL4Km0ucN5ImZ5gW1CyFcBnIwBz2ywgcRsZC9OOGrX51m0oqMxzPBaku8AMHOAzT2AAwBegNlzIF41w2vIfshnkB1eVg9gKonpAGYBPAnAMch+Ftd6dmc6wWtAvNLc2v7FzvWrX65x/6o1L2l3BBcBeL8NLnhkAOwF7CmAz8LsBQP2EjhkQC+zI2nrAUwkMB3ECQBPQXbuwCTU8tqQk2B2JYhXDe5z89o6dm2vcK2NkUbiGmSXMa/EA+iG4WXQXgD4ipm9BmAfsp8D+Z+fOmZX75tuZjNIngLgWAyu0TQRwA0AHmpe1n5f59rVQ+5dpcPxBhyH6s4ehwBeoNnOoR73aNa8dFUD6X8HxP8CeOwgiiCAHsD2wPAcwD0Ge95o4CgAACAASURBVBXA/uz9CJE9WVZPYhrAGbmLhM5GdnXUmhcvyM59sptBv6+5deX9nevXDNvf5Eymt6Yz5d5sDsjLARxf5S5E/+9kT/afhdmz5dnfUQB1ZpbCIMNauLfxLCM/BgwqeGQA7DWzp0g+a2a7AbxG8BCIHmRbTfVmmAhgOsnZZnYSyfxnbdW9GCRTZvYOkntb2lZ9bPO6O6qe1lD4gLA6ppDxs1kX9P8gRZ6zxW4XP5B0I54UytW+3MHi5UWHZpVLGqWbuB5/wHr4G9fV92z5SkiUp7/XzD0P+lPy7x9jIaH4Lep/I+LvdGH+R3w6Ry6MFM/5yD9oJTdjM0/6a0BE5oVU/LxJgZhGjykAxm61M7MFpK+24faaAVt/s24EJoWOA26Cey48EO4CsAADNp4sAGw6zM8CMFrXOrEw488j7R0AZlfYzgN4BsBDZrYRxA4AT8DsVff/2HvzODmq+9z7+zvdMyMEEhKrWA0yu2YkQJoZgXHAxtcLNmhGgGMbO4ud+CbXSW4c70sSv3HyfpKb2Fnee5PcxFm9ByMN4AVswNgsYmYkQJoRO2Y1IItF+zLTdZ73j+qlqpfp06PpntHy6FPq6apzqk53VVed57c8P7MtDtsjXM68d5H5DqE5zpgfP7ztbKEu4HziQlazaYyELED8skw/6+rtv35kcPXuyX7YiSDH6cCHDN6Ud7mHIgc8ZzAErBWMYjyF2SZ1zN6+8a6vpwxCF17S1zY+piO9bIFhZ2IsySdp9xBWFyYer5hnppWSns2i/yD2rLQUkmUMO13S71F7ghYBL2E2YjACPEqsrb8J2RYz25F1mbF2y0S7XeSiXNTu0BFC80HHm3GusPOQlgGdhCQ7p/F6xK/htQH4xaQ/bBG2QPF5CvA42TjwRDabe3nfj3tw4vzlfZlc5N8K/B5oAY3dOzzx7+IhM1sPPCTT4wabDHtVsp1ONpbxLqI9l90b0ZEx5nrTUXhOAs7B7FzQEsS5NHjtSX65mfuYwaauZSseHVk7NUUwG5isO+AkxBXA8jptPbAds6eQnsHsOYOXJe0AdmPKEU+AsmbMEjabONpCwDONjL+re8Wxwj4BekeDxKNQjHUd6H5gg8FThn5xzFGHb/3xrd9IuYTOf+PV2WiPn4dxosRC4EKgG7iA2NAWRELyan0f8vgnz1/e948P3jcQRLhK5KONrKSFKF+jujL3twITE5JanoyJ9li+qTx+qvBfktAUrOFVyIvA9vhnbXvu4WjP7oO+mnkoclFuc1u24yfAB8p9ETEsdYpKXpFk2zxdSERqWfl2qVgQsqxXWbskH1EZESk1T3tCyl1jABxO5I9hmsjH4otXOkWc4SMfmu/xquDhpg5qGrHhzlXRou4VDyDeTF3yIYB5ki0EHpzM8az6NVELs4DzJHsHqJPaN+LNYD8E/dCwYcETG9dOaEHeQ+zyfh4Y6ex9760W7ToBs8WS3gRcQSzD2Yg18UzEByT/5NIrr7x33c03T6mVv6un/yhJ1wiulDQvsJuA14DbDPueOVsji57aODixhfP+uwfGKYUGjHZ1r/g+xiLBmxB9QC9B342QOAWz95vZo4t7V/xow+CNLSbxdhmwlJhUlsMDL+dDD29HDOHs8dGh1dvq7HQvsUX6ReChxb0r75R0lNAFEm8F3kmxSHAw3oHsa53dfbeNDodNHGpCnIoRFMZlsBtpZP2a7x6KSJgkcpEWS/wecAYNWKyJ70HrDH6IcY85Hmpvd6+tu2tVrXvHOHHo1RbiYq8Pdvb0/wC0QGKxYZcJvQVYTAP3LqG3gT0r7HP5MbUS7cBFxKT9+BptPPFvbdjMBkEjMnvawYuzs3O2DK75atUYr6UXX225yB/mveaAC85+7+xe0SFzv4H03gaIh4BNYD/B+IHD7jVzz2wYWjXh/e7Bu27IUbrXbujq7v9hHBKuN8m4ErGMsPBJgDlInxjP2Xrie1pdFMmH2l2GjB0HuFSI0wQoNklOIAu1QMySHKDKndBSLzX2XGV1OSGp4v4oRPyMCdvjf2Y7c0+9+L8uO5RoHojnvnBhtPCLI7dj7gPyURXpurKcjoIUcuqEVyEiyTUFOeSEbG9Fm+SahOdFZWQnRTZUCtcCJcYuwA4XOhZ4rNZnbybkmSXxOsJCJARsNeypJg9rWmHwqOIJVQjmmnMnX3bZr9mdd/57wxNshQboxSNbBPwesJDqFj0B68z4T8N+MDI8MCk1stHBb3piBa+fdy7rG1aslvM+0DshOL8lAyxH9I9tyjwJvDSZsVRDZ29f1ntdAlyLdGJgNwFPmPEVsO9m2uyR9fdOrjL7yPCNe4H7z+++ZmOO3LDQ+4DrCJNoxmAR2DWSPbZ06bVPrFt3fevCr6R3qroHYBxslLj+wq1OPLZh7cCkiNGGwVUCXuns6b/d0IPAgxIfBF1KeOLsURjvBu4lDvOaNMw4TQojH1isdLUvxzuY0bmsb75i+dVuwsPuPPCsGTcAqw23YWR49aSS/UeHVnvghc7ua16EaBi4B/Ru4O3EoYD1IbVjXGfm7lu69MNfX7fun1oZHpkBFuQ9RtWwDbgL42bD7nXmHt8wtCqISKy79wYRh9sG1bIqwd6I9FsNeJcj4CGwbwIDMp4cmWSkxMjw6l3AusW9Kx/18vfnQ43fRRxGGYJTQZ/o6l05OjK46rV6jUvko805zOZVJnoEoBpDUzolOJ47VouPKv1p6f8mOmCVP5M5BvEftjfytjt6ilxu2moD7K8w6R5vNg60pUOkqiGe+Ct5ClKMszxcSkjl+6tOOyrbJPI+io4PFfZaMb1UIuTL0GzDHT3Bx24upMOQTiI82XyrOTvAr117GrSLWjaKNGYZHPPyzq1ZYktcE6FTJDulxn3QY/YDg/8t/J2jw6sb03WsgdG1Ay8vXbryxr3OPyF4HvFhwi1PR0hcgXRfV/fKgZHhVVMTQx3Zwnz40iLCrekPAn/hyHx/w/CqKVExenD4O3uBny5atuIZsJdA/xOo64WR1G7wdmH37nVjLxF7DVqFagRpL9jdwN84cz8dGV61T5P9AkbjnJaXO7v7V5vpZclyoLcSeM4kvd05O3Fxb//2DYOTy485p6ffIY4BH0KaBexQ60IoDyhcdNG1ti03fkU+V2FOYLeImOz9A2Y3jg4NTEko+ujwdwS8sqin/xbEE0jPAh8gzuWrC0nzzOmje90v1gBP7ut4stkOEeX2hcTEoVJm/wVcb2Lj6NqBpoSzJrG4u/84Gb/rvU4K7DIODAJ/D/xw49qBKQkt3TC4akdnd/9PDb0gbDPwfgge05sV+fcA/1CvYdFNJ09GXieUFKOszpJoF4pUpfTEUticb0JiKX9fOmb5ktwJ4IWN+a1ut39apim5wR9MELmfAyVrrlSsVl5YynsU1hb/SjVUYmVhjVKbS0vpuqg8XvLiSBxdRVpT/FfeRTCrgbCRqYf3s8xsLmHu8THDXsp2ZA9oCUqLk00DK53TLmk+cWG5FqDq80vAKoM/BW7bOHzTlBCPAtatW+VHhwdGzOxLBn9tZo0U4zpDcIXHv24qxtLV3T8b02XA5cRhaHVhZg8YfMaZVk8V8UjCYc9a/LD9EnFyf11IOh60Auy0zt5prQw/ZmY/xfHHZOyWqSIeSYwOr94N3GXG35tZIyp5C5DeIO8nrQ7W7nUY6AiC8j3ifANhU5BncvBhW278dOAagsQ6AIjAHgX7c4OvTxXxSGLj0OrxTJs9Ys7+wcz+L3EeXBAkLTFzHz536cp9lrmNovGySWFDELDRsC8Z/C1Z7m8F8Vh00bUZb/ZuSW+EoKKQETCI2Z87ZzdNFfEoYHR4dU6KHsX4R4yvxgafIMwW+mBXz4q6ZKU4CTLvsxbuVic16a8gJcnXsqUayshIcpILyTmpUvPT9Kw0TURs3GNj2oR3z43NHptx1W5nOvb49jGce6Biw4TEIL224lxVtLNEj/L6IFSc5KrHKhtPukHZCEUHaA7Xt74ScwybC9ZB2I1xt0wvPHBXC8NEpgFZy75qxg5qzPTTUDtoPgqbCDcJPwT7K8TafY6PnwCjQwPPm9n/B/zfOEYxCG3Am5EuXNS7Yp8lZr30esHbBScEdTD7mcHnrY3bR4Zvakp+xcjaARl+s8G/GnyFMA+YARcDPRbZdNUWiMBGwL5Ae9uajVNc2C+J0eGB3cRx1980s9D8NhO8RftQ40CmOcRW+JBrT5i9arK64RmHkMaia6810DuQlhKr59WDzOx5M/sb+ejG0bU3hsmbTwIb7l2t0aGB5zH+3eBrxPkEASNURtJ1GefP2fdR7NMj82HD/g74xujwwAsb1wy0JFzf+dxJoPdJCglZFDCK2d+Yc3eMDA00JZ9547rvKuPcM8C/mHEzYSGZBpwt2dX1GiYssOYQR0Mty3YorOy1DAVikmxfrZ5HLQ9JtclvRTOL8z125bZofPyVVz93KN+jUbzwhc5IPnq8RCPKUHZe6ntDlDq18WvFSU/tJU0mKklIReuS+6Pg6SinQu2CI9j79bAvYYohOK6BQkF7iV2eBzQeGLw+In5ABfxGrQ1srlzQA7cZ2Ghmf+2cPTC6tnnEo4CR4YFNcnzZzG6tGrJaHScBl5q3BgxJlejqWTnbjOXAxai+Jc6w7QZ/mnHujpE1UyebWQ0ja2+Smb2E2b8APybgcRVLhNq7cJkwIjXVMNsC/Flk2cGNd1/f9OeRObZg3AbcFWoElnij4RqWTS32hyMkzSHMs+sR2zeuPTCV/JqKp3MLkb2F2knSKZjZduBrztn1D91/c0s86ZbJvAD8B3ALsSxtXUg6AbNfv+CCa/fJcJLNtk92Cvucmf2bc/ad0bUDLROlWbr0WoesX9LZhBH3nxv2H4bdOjq4qqlemQ2Dq+RwPwO+EifcB0kHz5b0y4u6+ybM+yndJMwcZqkCWvtGQiZCmaeksK6wyCrbJNdBdXJS8Jx4YMzDntyr+EOFBScLkx4rJoIrGdBUdlVU81pVeCDi14KCg6T8rpW+0MrcF8W3Srwpc6XU9JaUDxM6JB3BE5c0+E1MDRTXdQglH2NI0ycJ3FpsInYjTwgzzMxmOVzLCw0C2wz+j8G9k03omwwsk3nO4M/MgnN/soa9GXHWvhzXy58MXGr1a5uQZ/xfA9304GBYQua+YmR4wMt4HOMfCJKIlYGWS/7sRUv7Jj3BniRywNe9s1sfHrq+JcpOI4MDQjyB2Y/ztWZCcDz4iSSlJ4Rkc8DCwq7MvA6e+9vUQv6NxPLcIc+SceA+wVc2DK5qmsejHCNrbpCZPYnxNeB+wjzbDrFivC0XlCtSC2YNF9sG2A32feAbG4ZWt9QbtzubO0aojzCvxy7gdoOvjw6vDgo73VeMDK/yhh7E+LaZhdQcyxCrr71xokalnA/DyfKqLmWso9LK3AKUe0eS6+rlo0SCcWGyl+V0wFuPmwbjEazMU5XwWtS8HvIEoEQ0KhqU9qG8q8ISZCHFOCq5R2qfZTtX2WtRfS1e2oDZbG5QgGKqIOYQHtYwhgVW/97PIdkmgjwfALQJtZx8GHYz2I/k1ZIbfgGj997gEfcj/WOl6lx1CL1eaHFnz4ogRahynNt7tTM4E3iDpPpPcuNxzP7FaG0Izcahgb1mNowxQNj1cyzYcnM2ZRW9Q2CxHPPfPjy0uqU3nozYhVivuHZIYBfr7Ozum1xYqqnDLExm1SACbZrUcQ5idPasPJJYbjrIs2mxx+3vCZs0TilGhgdyzrjLzG6BUAKsE+V1xb4cN4ompUXyIGbfyHlruQCC8/olpNdTf24g4Ekz+7eRtQMtzZUaGb5xzDn7AcYgsVx8PcwllkaviVLOR7xkKiaaZUsq2qbeMk2wnLAxD962z8EO6ITdZmJ2hudT6meVM/tqfpAUCqFVFV1LLUqhc8kLpyLcKk1EYqdJgomUCRcUks/T+yCDaGfz9JTOsDhpN9QskwM7SGrTaCsBk8f8lZRFanXY1fNC1xs8M7puagphNQIvdiO7HmxDYJdYv16TC73K+txRQLcCJjhmJoP/MOyxkeHWxEen4TaBDWDUNTJJyoDebM4mUwV68jD37R2z3DMtPSawfu2ADB43c+sDw/YsT1wneURzhCf6emfW6roO+z2kqAvoIkgAwnJgPzayt20cmpzU9b5iZOjGXQbfBR4gYFYoqd05984lve+elOEEwLmG05a2Aj+Rzww9sm5ySm+TRWf3ylmYu1wKKqC6HbM7MO5r+sCqIOPcS0jfNwsiaO2gJZ3L+hfWapAMuyKf91FuLS5bSpPQIhEpbi4LzVHBup23gtclLJWhMkXUnr1Wtok87BlH0Xhux7g/lGw+SWyPMnvlc1756XzhoVShJJWgIDXJSMFTUrgWUv3Tb4skpILE1vCGJI6RSj4vexVyQBZNU00rU4fCyYe3wFjZ/R5mewg3V2Qwa3XYzC3AgyMTFw9sGjauXS1Mz4O+Eer9AHrjCuqNw4sThC4iLKzjSbDvyzEtRHl0aFUO9BhwZ2CXs+T9aV09K1pyDRmGM/vnZ+66YXpuOrJXkX+a0HoD4qTJcg+LLbeh9zd51JIQvQMJJrsAeD0BJM+MPc7Zv44Mf2e6jVjrDe4jLGE5I+mCyI+dPtmDNXCPLOBnZvrxQ+u+0/Lr0ZxOjIUD6tb1EPCCg+tHhwYaUUCcMjxw7w1euJ+APUH9MGkHHIvpwokaACAzVDxrE528shCoJJISuCrUsy6tq+8YSey7WuPUTLKc+SQs5jkP41FOaIy2xurTH0IC8iL/0EqSi6IvJPmdJ98n2qf3l9heyCGx6m1LZJbK8192BVVuLpCQCrLkBFlWTIGgxiQgrIOQMJZ44BHYQUE+TOwJMpjGpzQL1iKpXQBeBW5zbUy5NGVDcH43xg/BQuUrTzY4bXHPVQ15iRZf3G+YnQC2uEq8ZAoWh2Tegvxzo4PTY1kFcM42G9yDBYUDHA2cLbVGtEDGhjFrn1QByqlAJpsZM+eet6C8GDA4YdJSgFIbYQmzgMkaqPx8CNDVe+0cxeGQIVZymbn78dE9zR5XPYwMD+QEdwCPE2Rk0hGSWpWYKeApWWZavAmKfDfoOOo/AMeBh2F6vB4FuFzHC2a2FiyESM4R6q25r+Jflv83GZSziVLcS1DXyaFcyrn0t+WEjftxYO/YvhziIIeznIAdlHkqSt6Jwqoyj5VKk35VIQmpFSpdLCpnEUWvSp7Y5K+pkoMj7XNLr0n9V+jgQFnaOxv5GqYMzmUc4bJFHtNBQT6IK5yHez7CFcOmAoPAoyNrbpwmd1mM0cGbvGE/B34aGNniBIu9LGSiUoTPMQc4DzG/XlvBLkw/NTStoa0jgwPbgVELk/U0oeWqXrV+ymFw2yOD35q23/GD910fIb1MYMy9YM6kH5hm7YTntEn4abHg7reIxk4HnUFAkVozJ3n//Q3DN7Y0R60WMs7djxFiMS+EXl10/mV9+ywXHoBtwGPPPLqj5fews5ZemXGZ7BIgJAdtK2Y/HBkemNbn0MgD34rk/ZpACe/ZiAsvuHhl1ef1pGQBJkT1eJeqixKvVVVXy/tP9L7wt1fs+ch7RVodn3FAIfHdKhkSl+IiZd6FKsSzemZIsoGKZCKVp2HptgVvScXUawKPSCodpILdtBbWgF4qpD1JBzIUXMai2L5VdVoEDDlnT7foeHWgbRi3mAv7wszoIsxKmjiEjjQ4z6y+Z8DgGWeZR9p1+LSTZImXJR6q9xOThOHONsu0SrRgqEXHqQlJ2wkLecHgsFd/8dRkf18N9TPZIQn8BiA4jVhKO+R73mPmv9/cEYVjw9DqLYgNhJHgNknnjm8PkxLeR2wBe3LH1h+1/GHbYZl53kddeXnqiSBgC9Ps9ShCjBDnydSDA+bnxvS6WhtjeAlfVsJ6qhcSr1U/U9pYPdF8teJ94e88+ZDUBuqwBm+Ih1BCRNaEjkj4JiiSgrKQK4rbE5PmCsKSJCqlHJIkTPnJqApkoxKFcaSJRbpFVSICHpRj7IawL2CK4VVgxUFwhmulhX/aYArKLSggonW5MC8Dj4wMDcwI1TF5xhCPI14Iao+dLgVZ1ZKd5iLOqneV5iN0R7z8lnXrvjntLNnMXgOeDPt56TjQsZ09/VNvfEuPCTMXKhLQNEjsAIIsuzLraNBGkuw9ToBlOw8jgOAeQhJ2MuG1PR5xLvN0c8fTGMx4kLDwPwd2vLkQme99xk4zQqt3Ty3MHW3mjgULUbl6uT03a2MrhlUP3mkL6DnqP4cNmIv5qvk75Tff5j5ECrPYCVHIDSkvVpjIJym8TxpA8/kmFsVhV/EJtXY/foh8TBaGNxQnQqUcTaoMhaK4PU0wKOucrPNRojQlj4cnTzyKO1QZjUhCxf8LXo7U8SrfeIkcNwZ8+CZAnr1mQdY+Iw4ROygcd3HRwABvRvwTj6x1uTCPG4TW12g6RtcOeEdms2Fhcm3SyQZHXnjRivBJtjEXY2Hgo2AUmBFhHYjdxPViQkQBjkE6UfLNDesQ6mjz05srBJhpD9juIFKhffEq2hgNkA+FVec+BODC7qvbhBYA80LaS4ysH1w9s5Q+ZU8CmwmTxe4A7VOtokCMw/SIZXiiM+KK5nXvtWPAIw888K1pETwpR3vGdpq5nxNmBJwtcWq1DSWpXS/MawrdoNVIQ6JgYFlyekWVc5Us2ypYwQuLT6zzVnrviS/ryMf7dZnsrGzjumuHEOMIowOXdXnWULVNMXG8SlhW7aKExc4pT1dVNa18u2QBw8Kq0s5KS1GDoMLjIuIrRDmsFaGk1aAxqH+nycPRmEdg/4VsFuEeypxiC2uzIeAphckKtgxe4zuEfzRQ0aUN45TxyAJkOWFJb3+boWNBR9ZvzTjwoowZEbcvc3sM22xYwLVhszCONQtNjp7kmNC2rbv3TH9StbkcFlSZeJ+ghjwfMlDQdXkIkCM6mtjrUfeaNXOIaE3zR9Ug2t0zmL1EUJVszRJ2XtPHBBHStNzDjMxChRUWHDPskaYPKBAP3jcwbvBKLOVcF7NkdchHfn4X1SQNNZdabVO28sSSWJdM9kjOGstISPVdVI/NkhSHXklIfs4eXzee7hBqYKf3J8eRShU+hqrtiySk1raqRCTlNglqX6qOXv1IxdEmiUi8KkKMcey5tTo3FRar8YRaBrMy6snvHRiIb8B1rfMF36bRsgnvCy5Wu5o5cG43Zo+HcjVhJ0kuaJKX8+rwspMlC7FIbycOS5sRUuYZ0xjGNizs9yXPsfJNt0Lszo7NmvaQNHzRLNdcxDkcoZ/XgEPP5kB4NI84fyuAfJjM3GjzR9UYRu9dtRe0mQCLuaSsM3fCkos/0PzIlWmIjTm/d2XGnDsGC6nXQg5TUKhtqxAp2hF4r21HHFdtQ8kr4OUxdlK8IZTCYlKodmtJVqcudAlUu5pyiLxCrDDvj/HSsRAWI30IaXjvz0nO8qVYqymOtlJN4aY4KdzS10S17al4LEtfM1atfWJdgrSYWTLIq7TPUouCA2TcjF0cO01zehH6gwVot0bj9fdXGMehYPGLccV1QZqNHLDJtXXMsEJo2puX2/UEETYdjflQD1ob6GgCdDokIjNONK8LO5etmPbEYe+9YXaSgsKGBHAC4cpMk8Ve56bLy5pAyyZXyoGF3t8ytSYlh1AJyQ4HzSHgbEp+FxYmrdxqmHhGcZhTvSKCGeBIr73ttM7Y1DKM+6jdjKMCoxtM2LGdy1b0NH1gYRDY0cSKivXQDhzT23udDQ5+PdW8jHzYVqQFqWMEDqXi76YQjySzqTEGL4jyng/jKHPu6GaM5OCAnZV0G4Cl88wrPBBJopJQpRJ51lJqUk39qsBhDSimAKTaV9eCVp4VxR6Rqi3yO9JesB2ccfdEH7qJsM1xXHTQj6Md1JhS0f4KsYAAi158eWiPk4UVTNs3bAe2rL/329MqbViByEc4t4M41yKEnB6NwsiHoTbM5iFc/SrXOgr4ImE5Fi2B4sr3oRK6QSEshxAOgx0SuwggxpIymGttpfn9GGY6PE9AQpq/bHIzK9+jAOMlsN0BwhAONM/7scM5AMmHSR2Y5kOQbPyRSJ9nJt1r0WGoLoGE+B57xJiLspSNv0g+ZHiMV1rvgZrgiFWvz9rtVcwpyXt/zc3DZY4+6hO3ulf/8m3Tbp3bn3DiF0YzWHQmUdJDWumWKNxDzMrflPkelKAPBRdKGdK8VSUSUvSICFnJPZKiIvnk93KPSNnexyTtoOM64P0TffymQI5Nho0FEvMO4IB/OHd2v8eh3ccqRPZbygHbkbXiYbTdbIYkUycQ21RsF7AF6scLSxxJWKVy8qor8wK91hmpQRnfmQRjDs2Qmj+YYW67oe1x+Hbd79bMbG7XRddmRtZcP7MI/gyEsCNAIZM9MNviLLCifYsh2GowHvAIdJLmmqxVktithVk70jzCqkE44Kjpj99MoLHBZHOKZlFGPkoJ587lzFmTw5PKE8wr4nHqpRXUbl5IWE810PEoOiWTnXUo6bxBtPs97Si6oPrpqFybNmRU2V5sF1OQEklIhOzVivBLedZU+9qo0r+Y8xFjL7CdaxssLDFFMGmLEVw4cJawE5o6oJkAGztScahngNqVjWG2xVqT5LwTZt4DvN11YGbxdRyG2VJwbkOWFhXfm07E4hiatW/KTodQDstoO/F1GWLoc0hHKooOjtDSfUcHgepghm13Gdvd5PFMCibbrdiIVLcpMMsOXMXHDPH5PBgMIBmiXIUBLPnBI5gKZZcyFatqalZJVMxTyxlIaUmmIKt8c/lu48TkIyWdRuQO3eAaRISdJOmMktxYad5fSSuU+iupUladuihfKqRUXLDguShH4oyn9yNKSlsVRyi0UfFCyStl7cHZ9NVsMPZI2kG41OAJi3v7DkzLTwHSQghLrLdY9eM1uZZ4PvZKLZP0DUfGizgfJfQ7aAcLe8DFeTcdM8rC1iyYtdeI0TyEmoB3ggAAIABJREFUSaKtw3YRhwOGeDIc6Bh5Hcr7CIGUJTRHyWzPke2vzAghiCrYS9j1YUC7mp+XNS2QN2cxpnsorYBDlSSy9FAajzyRn2BiVk0at9pCep5YYbWuvRQmo7WW1DFqIWUYl0M6XWYn1f9+DiEJGW9ASZegSi/5pbq3o9rOSttLl0WlV6T8Wqh+2GrukSQ5neDykHZKernW5qbDszsvNRgSu+mAed5zgHs/dDox+aifSAl7Ba/6wzKtiH3NEa5M1jrYOAaRhcf/thNoXZPhRJD6yn4PM8seJA/+luH+n6zOEVewDiHGJphrqBVVrPd/GOHkA8bvvPPOGWlDsPi+mmPiWVy+KVkdqHlZRjbYKLR/wwAns9rkQ3tzEeP+F8h8EKmohnrkIrGLys0TEJqUrC/psZTvsGw8kl6Ps9OP/uSdB8OJnhKc8oX7M2CXS1ENL0fC21HhEamyPdEuRSyqeU0Sx0sRkJTTI+UDKxtA4VqrKta7C9n0kQ+53Wb2LGETRwOOFJzW3EFNLwRnEl5sbLvkn9945/WteLAKprLu0RRhdhbMRFixSgAXqnZk8Q33wHzYl8HAqstXHMI+QXrWAkMCDWbFBS0PoS5kjvAQnRlJPABkPliOWcLQAfojNRzTIvI7LbBqN9tSzsdenwN+RrWQkDqkIjnxL59WpiaUNQlMnXOQ7OfL3lcQFcBZ8jCnSv5c3IEfyzxViKLcsZIuLU7sSZ+ySjJC6pxUFgCsgtRlU9Ex0axsx9UcH5QISbWhUdqy02z6yMfoutWRpCfzMfshOArp7KYOahpxySXvc0gXEGRtN5zZFovvUa2As+mrRlkTfruQ5BROEiKCH/YmwgpHHcIhVIfZ0zLbFth6FrBk0bXXHiyTsEnDTBHBntiZbFFvgEQZHpuBBqApgIvP5QH52UJR8nyMRTkymefxGq9GKmqhusW6fEO5B6N8Cdx5cSg1+io2EMi5xPj94aALwZ1c57s4hBIuQ/5EpU5o2TlONa9klUlnRNXtyd4VnpM0ynwpFSRkwrGUCEhO6LVMm0IfjM2B9DDhdSqOAhYt7l054ybBU4FtY7uPB15PkOKHvMRrZrSq4ni2gQl+y5DPkc6gIJUUgL0o7CFn4E0NJfPHHpj9cWF6RCcOdAi9CGwhYGKVl0Y+m2fGjmz6wPZzKDYKBBoG1HbaZb82IwmdZG3EoVT1xieDcdMBawyJ6s+uE7D9915rZqpWfLoYQ7j1sz2a95WNO4j8q2RdMUdClK6Siu6NejAmQs0D1dhnrbNmgEvXm0AsMXPnnPLJux977n9dMvPiuGcQzv78YNt2s5XyvkRMiaVyi7D4PyXfkmxd+NOSL6A4YiTeYUHP09LdBLJ4/cSlA+O6IEXJ3nzT5GVh6ZW7MF54/NOLp/VmZsbPJHZClQ9XiVnAaT7yx3MAFsqU1EVMsEIsYXvNeAHRKvI4C4IqfbcUkcuZKdMGhAoRjIEPs7AZHtgbprRrr2B8DXg6qPmMgzbBzJNSbgbCzufUwJnbJPELoRC53azgZIc7hZiwHEIN5OVpw/K8pMMO27uljYBK4tOADsyyAdNuAWNmwUUr9yt45JF8IP3YBvwH8GRzR9U0vCD0WvnK8gSmPcBDglSC9sTfzyQJh6q8UZ39hZwns8oaEtKp4JftMe4GNjcyzIMNO+E8xMUgBxRDLlMz5ZiN5N9Y2YQ/icrzqsKOigUKkxQmSRbydUFSZCUNFXdYqB+SHoQS/xtsJ863mFZ4bLMznpA4nfoWfwecLKOLA5B8eOkSYF5Ya9sBPOG8djZzTAnMYQbKzrr4lzeLgBofeew0C7UeKgcWFq9v7AFuRdwt7YcTBOc96IArXjbdsIy95sf9c8RziXr3NwOOkfdLgZGmD25/Rvx72xMyBxI6MhMxm5lIPkyHG5YN+hjYbrlgafr9DJYztEdx+FU9D/sesNvx9qNWjGzKYUTjiirOY4p8KFapeBzx38p7TxmqMpkJvBtGYsZac6cJ87qhjEvvVb5D5t4cmbtl/ufveeW1P33DQR1rVwsL/t/7M35PdB3eH1OsA1iUwLUCHSDFGZJ3QyuRlTK/BilmkN95RYHC4o6Tnqt8mwop3nKaU05C8vspEZHtSNNPPsztMu8fBLuUMA3zUwwtX7r0yh+uW3fzfmhhro7Onqvny+d6IahKKubsVcED69fd2KqJ7hwssKhXC5HJtFmUiw6TND+og9lrhCtj5UBbA2MB2sGyJvaOrlt9gE4QDgy08qaxYc2qXOeyvgcxe03SnLodpLmYXbyou+8bG4cHDl1HtSB2INsRdDbFPLDZzEBvkmHzFVb0NMLYamqZsamlkNmYia2gceqTjwxeszauG5hxdaf2BWm36N7xcXLR86TiNfeReIhEUH/5D6dGzkcquSARj1OtjUgQD+KQqzz5KNWBiEOv8P5i2zN2qOZHDWR2jS1EWiH5dijjfInzUEVFqrCJCqncChS8IYksjjx3VHmb6rtOO1Qq2iXHlgwBY7sx/Z6Phwdv8Jh+6lxwEah5Eov3ZrIHlFy0iLqJlbxC5CM90i8QDzV3VCnMBo5a/IarZ1TolbwyZm4+5kIlcV+GwHolZuOKpVJDCN7hoLlyMy8v5hCmGaaNkl4hjPccBnQind7kUe3fMO2E0Im4jsE0I/NoJE5ECgkZ9Ya9lpEOqAl3Ac7cmJm9BhZiGMqYI8zYtB8hRT405nfhMvfHiid1ksHLUSQC+T/KZ4oVwTmVyeIp0jHhMarssvDeDDKZUt5HYTg+Ogz0TrKZMxd85qczMhlrOnHUF+7LeOeuk/yJFGOf8iRCCaqR+u5r0pB8m0JByDr1N1DpPCkZLlW9V2GfVuiQGlj5EFT471XMWqWUNCEkRiRCH84OOFvyPU0eVstw2WWXGV5vAxaE9bDd5twjmYzb1NSBpZFBLNBYNKMe4pH3s7x0GqE3Z/EygQUJTTZu2CuEhWkdRpyvc0AWATuEyUMZe9zMhUqKO8EpZvZLzR7Xfg3ZDuLY//pRG2YdxgytbWY6lbBw1gi09cHhmw7IhPNctm2vmXvVLCg0rg14XbPH1GqkHhzbPnph7sh/3vgSkd9CxtWuPJoKh6qxHQqNqOndqJcJp3wDTfCcTcX5x3NmOQcZh0VR6tiSeoiit45JTwKvTnDkgw6zxumS6d1Ih5efspITSsXTXi7bnCQgqW3FWh15SpHI3ShlkyRfASVSzSvyQip3TX5c+Qz0ynHDLuApM5sRCabeaXNWbkhiIUFKT5yBeNOS3v4frR9cHRSTP5Oxeee8RaDlhIZcGdvktTbbkQlVCZsKGHCKh2OBX7TwuPUwG3R2qEyKmZ5zFuZlc872RF7PG+xR/dorBpxMrFi031+ThzCFcG4rUbQxH1paP8RGOgazN3d1998wMrx6v3wu9/a+w3ZFHSd64/WEhhXBnRuHB8J+ycariM35fhMn8kt4cT5wW9C+W4TOi/rmktOxCnjmmdm4vJ6ezHHGxnY1aDlvPR6551u+s7t/syDk3twGnNHsMbUa1S7iraAHqrYu92zURPLc1/BwADWJR7Jmx0TEo7x9wdviDLKZgu2egoUeqcPMPkAms/iYT999KFwgj5O+ODhLZr8j71+HMJEIm6oS7Ra/qnQZVLRRWdvkxtK1M6EnpBQuV+yW9oakD1wKy0rGZRW3bzPjoaf/cEnglK25eHjwxnHhbzDnQhNeO4DuKDowvB8GVxIXFwxRuRLYi+b8HevubklxwSQWIs2YCvPndV9r5txczM4Kc5qxQ+LFtkwuKOxq/eCqnNDLQnVjxfO/xy4sjEAewsGDjfeuEthtWLC4SwewWLFBYr/ETjpmy9l7DfumYd+uv/Dn1tgEeQvwEgFJ5JIws4uvnWH1UyzHQokFhHhLzXab2aRECNraDqsXQzMjIPSkEVQTJytx+rJLrplxAij7goqHvyLtkniEQrBNqt5HrfNpZUsVBIVUGXhrrH3RO5JonHGoLZNqGr8KiTPl9d4oN378BHs/qOD3+HcILgfNLiVu5yfyhdNRowBgqpyj0tsKBMKoEnaVyA2ZiIoU+W7tJhUbSiQkPxJpG/BIrd7TAaG7Ec8SfpNcLHhLV0/f7GaOq9no7O4/U9LlwNGBXXaZ2aCYFrGAM4BTli5974wo2tWWyTnkj0daFNjlGUnb1q1pQKhAtg3Zk9XU5coaAu71uMy8RZfMrEnOIcwEaJ3BY4SFXpmk10m8a0nPiv1zguW1ALQEdKLkj6q3gDbWseCmMDo04IEXgVeCOhjnPfSUD73HtgQSCzE7mhDSJe32+End863uvWuGQHoSs20BX4cB8/bsiULv+/sFKh+qO3btIBdtkIiSc8q0rXkCspGcKFYaqCuRqlBeto+KtoXFylaUHctlUDYbh/gUyVO+mSIHvBdnlx31iR+HauUfsDjxc2tOkcv8Dyk6udyTACVPgpmlPBEVX7tKnopysqBUyyqnV3mKksgRSWwsLknvRpK0VO416fNCBq9hmlFSjqcvaHvVjO+BhSqvHYbZ24Rd2tSBNRFveMNVDvnrgAsIrHJrzm2R/A9GB2+aDiWcI8CW7HF7aoegthBRxGGSLQULE80wnjBnWxs5hpm2YjwW1lqn4v25NpabUUn5hzD9GB2+cZvQT8zCpJuJ8wDeGHne1MxxNQOdvVc5cF3y9NQWWknBC4YaNc0bPAsWVmRVnJFx0dkNHqKpkKkbKSTPL4fZs87aWpnj13qYewX5TcSKVxO2BI6UHRiRDwVUTAC2fbxnF5nMQ0S+7KFVIhvlnCIVEQNVZpdlSBGTel6VQrsk2VHl9uRb56A9WyXyqzA59nOQ/kjQNe8Tdxy04VcnfPa+w73ZJxTlevDKpqbsUHyt4knIK+ZW94YUO5V2kdpuqfeUtVci3b1y7+VvRfL0FrZbssFeGU8+88fLXqrY3TTiuzd9R8BXzSy81oC0RF5XLurtC0zUnlnYOuYuEryNOFE5BBHiSTPuaea4Joa6YYYo8Th3JPBWKYivCtl6cGGW0kInuW0mNpoIya+ZBfQi7Z/W6oME02UHNulWxC8I9u7qTMyu7urtP6apA5tiWJQ5GrjI4nyPEOw13O0bh29siH8Y7mliD3D96vHIRV5Xd1707hnhBuhcdvXJiPMIy/PLGYyODH2nojBdCHJhUabTjlk+u82cGyGMoM9FvKmze+WMOJ9TgarWR5NeMRgKDqVSHQdHcmLp0/0qd1j2t6BEOMo6Vby1eGorYsWrtrYSMUrOVOPCkmdjfNqcO2n+p39ywJzQUJzwuTXtHn+dpKtirXUS36cViUWKYBS+QktvV8KzVGhYIDJFv0TSSZWUQE74L0pEpHAwFdumBlE2oOIYi4Qo2UPbDO5r/BtqAdrHHjJjVQM9HOgq87zrvO4V+5W1eVF3/zGSfgU4P7SPmW0FfXNkaGA6k1CXghZ3LV8ZKm3bFHQuW5Ehyp0JekNgl3GM0bb2bENa//M65u8Ae5iA8I787+7twIJFy1YcdPfQQ5gYHdKojDsgiMjmu3Cp976vs3vFfmEU7Fx+ZUYZlgq9Q6pbryEPWyvp540ey7n2Z4mrXNf/PiUzc5cjzQivrcj1EIex1v2OzNxu73VH80c1vVi37vrIe/+gQYh3uh04B1ja5GG1DFXJh8b9VnltSM/hEq/JiWR539SbwqTU8qQjJHk8/1+q8EMVT0fx+AVvTDE5IV6yGWjP5FeVprmlROoIea7C60PkosAqywcGjvvc3Vl5vRHch/D+VCDhNSBBLEioTSW3lwwvJR9DmccjgYJKFoVdJV+LfUvaVyrbXmUEZVsKJKjsePG1t0VibcWgZgBG7v5eJPxfW6AaUR4nAb/qsOWLuvv3iwf0eT19swxdB7yT2FoeggjsMeFvaOLQQtCBeLsiv3BaR2E2B7N3E1deD8HDSD9/8J7rGyrKeM89/yqZXpKxvn7eBwCvBy41Z9NKzg5h5mHdupu9mf7TzDYR7v14nWHvA3q6lvbNiFyrWli8/CpT5E7C610G5wV+RG+mG83qhtpUYP3Qt8eBh4lzP0JwpvncWxf1Tq9hoKt35RHA5UCIB1mgVzCqix4FIJsNERubMVgLFuodPAH8VYt7+/aL5349VFUdyG3b+Vpm/py1JnaSdJOF3j6Ks9byatj1OgYoXJV5OuLjFQ9c2pjJorZ2zHYlOlrqLynK4No+Dv6V+R+/499e+6s3H/CSkQs+c3dWuGVy7hN4f0H6y06ELVVdW6pxHodPWZoGxCobya86sQ/l95GQ0U12tvKLpHSMJBtRXn83rnhefp0kRhpvj0x60dG2YaLvZDoxHvkNbS67CvQ+AiMkJF2M2a8AL3Z2r3xidHhVaN5Iy9HZ3dcu8WaJ9xETpyCY2U7QVze+88KXGb6piSMMGQuXg25avKz/qQ1rVzdCFKcEnd0rHMZ5hvV7HxhyBWswPTeZ4xm8KGkN8YRhQg+bRNaMXwVu6bxoxVOjaxoLJZkqdPX0OYlZxJXXJ2wrEQE7N65dPWN/NwcKpPF1RvsdwPsJk6B1kpYDv2LG84t7Vz6/YXDVtFxTdSF3uBn/DXGNFFxsc5PJbnZhtXQqYGbrJD1KPJGfkJxJvl3mPmiyWyBYeWxKsWj5SlMuegPQQ5jhKQd2t7no+SYPbUZAFr3kaBuS7DxQPcPSPElvlexb0NKCuyn09Fxru6Lx2TgLKBOgyJztHBmsvNdWvXh3fWb5OOIZRf6JlMm51i2g4OFIhO0U2ic3VfYrLAlp3QnbxfsuhlcVt6nM4m7xxLS9DbLZxPir2M6j8dnAnwiuOfrjtx3QCegLPnNPVlgXso/LR5cJ31aWj59H2flUaVW8teTJKD+3ycTzaie+PCArVbww5dFS6rW0g1hEQJb2aJUfJR+DtQtY88wXz5+xVVIfXXdzDvQ3Zq6Rh4MDftng10EndS2/ekZaCLuW9bcBy4CPgBpxF3uw9cB/8YUvTPvEQ2IO2HUyzu2cFmusm4f4LYUlawLsMLgvG0tzNoy2dr8Fs7WYBZAXAVyA6Cfnpu/+KY4G+sE+AUy4mPEewj1I+z2m8we0cfj7OUxfMbMXGhjKYUC/jF+T/IzM/1iyvL9D4mLEfwdClTNl2GrBi+uHV0/qtGThsfy9McRQmjHpQsTVnT1XT08x0MgfI+MqYBEhsk7mdoGuHx08MIsLluOhoZv3yvsfmQXVnTPgTHld19ndP22ql3vJzTfjfcDHmPhe+3HgOmoUlaz9IPV6AbiLQnJTtbCrFHmosr4MqdUqeC7S4TapJTHpVZF0VGtUQH5/hW3tbaijPWk4LxtFfmqr6Eihv4iwvqM+dtsB+VA6/jN3twktEnxUit6BfEfFvD7lVapyIlXyWMSEpSatLNELq92m6M0opxpViIgSrYsvKTWzqrkhW2U2owotVUObcw8C/4hZeKacdLjkfwv0K0R+weKl/TOKgHT2rGyT0QX2EcRbCIj1LcDMXgX91ejwwMtNHGKj+CVJ12Act6S3v2VhDOctu7oN9C5gZaCSDsD9mD28fvimhkM7AB645yYPPG5wt5nVDduS1AZ8xKTzz++5quXX4ZKL+tqFLgb+FPgs8Fms+mLGZ4ALzBRS3POAwHQn43REs4eAbzZ0f4PjJf2axLsX9/TPX9w7cxJtO7v72iOvCyV+F1jWwO9yE47ryTQUZpvCg8MD46C7wJ4igMwpFoP4TVBX1yXva+l3uKi7bxbSFYjLiQllPQh4yJzNzBzNpsHdS7gs9VGCK0GXdfW0Puy6q+fqjEdvxfE5jM/Xus9ifBb0CeAtTlQV1an5oPDbd76C9w8g7azaYAKSUQ9SyXMxkVektC0R3iPKao8UkPCEFJDJQlsbuIRCV4qEFMYjDB0r+FtZ5n3zP3b7jNLH3lcc+5m7ZslsqeBTSCuRZkMZwVBMFAqei7SmWGLqX5aAXvijVrWO0mmqd7FUC+RKHie9f1E6/wX+mySyoAjxvDM/I/M9knhgcFUOon8yGs5NmSfpfwp9yDtO6Vw2M2JBF3Wv6ABdiPFRoT5CqhwXYR64PmN2S9MGOAlIapPxQYx3eLWmsN6i7mudmV8GfE7hilK7gduBx/fp4I6fAz8h3HtyuuBTuchO3afjNojO7hUuyukMwXsknSp5JI98jUXaDtxudqgqe6uwbt03I/P+HwzWN9h1oeC3vXStvI5e0vPL005AFnf3dQDLEB8D3i6FJLICEGG2SmLD6ODqfbPqmxsGDQMhHv0McC7o9zW2OzjsdV/RuXRF1qRlxJbvM0P6mNmY5L86Mrh/VrmfLHRE5jXMboBgWfSzJH1Y0jmdF/e17Dex+OJ+k/xZwt7vvRbUvMeW7rVbJH60fmh1VaNDTfKx89O9ewwew+vJio2TcRgm63lM2I4i8SDh7bAi31AVS04l8RAgZ9DRHodeJQ+Rcn4kJtXSsUJ/Jud+48iP3XbSMZ+8e9pvdvuKYz991+GYu1jYpwT9wh+eqmCeREHOWAk1K8pJSJW6LgVnREo2Ob3/0qYax87vTJS8JhV1RVTaWlgFJW9Mct/C9sq4+9n/p6ehOgfTBrlNiC+ZWaOhMscK/gDjIxjndvWumDaL7qKLrrLOnhVzDLsU6VOSri0Q3VCY2Sjw5Vo3rGmFdDzwB8BbunpWNtXtfcEF1zpjbLEZXwTOaqDrRrC7R4cHJiVTWdzJ4MAeiSFi70fdyVJefvsKzP6gs6e/JVXhO3v7jDjk5T2IdxFWO2YtMOpzbTPv+jqAMbLupucM/sbMGrsu44KaHxO6LtLYiV3Lpi/EdHHPysOFvQn4PLBCUiOhTI8BX4sV/PYNG4dXv2zY94GnCfN+HIZ0BejDXT0rml5ceUnPNRnMzgP+O3AJgTWdgBE5fWdfjx9FuQkkWmceNt55vTdzN5nZRiCEmHYAlwIfIWenL+65siWf1Y/rJODDSBdRJxeQOGLqWYf9qFaDCS8KG4+eRtxFoeDgZDwdKcJRYRcvvSj9tjzjWQlPR2l7OswqKeBaXNfRHhMQU+pA+WrnZUMRUnQ04lOY+2jOj50//5N37Jfu+eM/ebcd95m7j8XsKsSn8f4KeT8rfQ7Lg6uS7wrfa4Gcpb65ygMmiV8V71L5mqJEb9rFVaV92dE04dbSAKStBtObqdwARtcO5Jy524F/BdvRUGdpHtJvA59F7i3nX3x1WBG6KcTinpUZF2VOQvYe4A8lrkRqTA7Y7Odm/ovHHD6v0uAxQyCpU+JTQu/o7O1vSn2LJd1XZ3NtuWVgX0C6vIGwju1m3JLJMDoV47AMTwG3SmGJ65KyGL+J9Ptd3X2nLlrUvMrnS3pWmonjBe+X+DAB9QPMbKfBzYZe3Hj/9ZMxoe2fCL9+mgrn3I3A16CB2kaApLMk/gDpIyLq7Ozpb6mc0aI3XmNd3X0ne+k6oS8SezwaIR5bMP4N9NDo0OqG1OcmwE/zS5AHT9LRiF+X7EOd3StOPf+y5ljMO7tXtkeKuoDfFVxFWLgVZrZT0t8/NHTTPifGR9Gkok2nFbvZtQnjP8FCpdHnCVYifluWPaP3sl9uWtTD4ov7rbO771Tgg6BrJIXU6doJ/HBk7eqf1WowIfnIbdm5WZEfwquhQlVAFS9HyoRNaoKb2pIgrcWm5TdPK65OToqL8TfJ5tksmtWBXKbK7spISGEu7HPzQb8t+GPvuWLeJ28/suHPP4047tN3Zb3jTInfBD4n+culqB3K5vkFllbMmUiepfy7Ql5FsnOBDE7ASEuRcUoQjUoUckeKYVRVd5fO+qgkq0q0BCASPJTNzEyJ3VoYV7RN6J/MdBNhFpAiJB0h6b0SfxpF/jcXLetbcl5vX9Mf0ouWrbTO7v55kr9U4qPA5yQugYYezoBtN7P/k8nqxjvv/PeZMVuqAUm9SH8o8YGu7qkt+Ni5fOXcCF0h6U+AKxsgHh5YJ7h1w+DAlCjbjA4O7Eb8xOBHhIV4IGkW8DuCT9ph4+ef/4apT3RdsmxlNvL+LIn/gfgDwhN+hzF+0pZtkNzv7wiTTG461g+u2iWzv8S4nYBCeWnoVMHvYHwOceWi3v7jz1ve3Dy3Rddea4t7+450e6K3CPsU6E8kLWsg1ApgHOwHYKvIaNtUjW107cCrmH2TWPUo5Flhkk4CPgL2e7ldLOlcNnXPh3OXrrTO7hVzwf+S0CeF3gM0YgT7HuamRFbducxkzOTTiicGf+CdY8Diujhhz37peNAHJH5/166xC7vikMApxaLuq9p9jk7gI8Bv5q+hevDAE4Z9baJGEz4Ydv7hRWNz/vfII8g2QOZy6moYFv6oRjqqtY0JSKlF0tuhKl2r6L8W3qj8uAl0zIL2dthVK88rXXfbALyfjbkrME6T7GtzP3bb9zp87onNf/32GUurj//Uj83L5npxUVwTwL8Lr2PTxK/0l5WRP/LytemvVqkepQ7l2Rl5Wdxiu0oovz+r8TAseF+K46oS4ZU8flKuV5b6bHsNu+npL/S0XBZ1X/Dw2hvVtXzlz+X1t4ZOlPRLhLusAZD8hXhbaGaXOs8ti5b13e0y9qTfkd21cePUWXsXL7nO+Y5dc/G+C7M3SbxN6AKkySgejYO+hfw/P3jv5JKkm4Qc8fdfdg6ExBLgjzA7s7O7/2ZnDG8YWl09Py4AXT39HfL+XCK9TfA+g0WSGjn3L2IMIHtwsmOoBqfMM97lVgFdiF4CrkdJs83sNzBOyY1F3+rs7rsD5zePDt60T9K2S5de63a73PwIXQpcLemdQJBhyMw2A/8l8eT9aw5J7E4XDHse48+BkyQtaay35khcg3GeebvV0A87e/rXzbKOLWsHvzVVHgXOXfp+l7Ud83lm/Hwvu5S4gOAFECynW4AHhoB/Bp7beN9NUzohzpAd9Db+XxKnAidQP9TIJJ1oZh9EnI7xna7uvnuyuBceGF416TyUxcv6O7z5hWBvBa5BdFM/LKc0KLPHMfvIIXI1AAAgAElEQVTyxqHVU0LOvI/2q7CrAjbct/rVzp6+vwO7EOmMkD6Sjjd4v+BkM77V2d33U1PmpZG1N+zT76Gzty+D53jgYqSrgbdIClWe2w58bXTtwMMTNaprlbLx3M/IZu5FugQrKyRVlWykNtRcVS1zI2VhL42gxn6Ks84qxy9szq9va4eODtizF3xEXAcCUnPlOGY5nWgt3wZ0mdzHzWzpeKbtpvkf+9GdObIvbf/Sm2YUs57/8dvbc2TONedWSLrCFF2A1F4gVsVvKMXf0jP8eDKfmMSXkYSyqh7p79iSHojys2uJ9hTiw9PHTaxIye+m9mKJZumAK1NpHMBmsO+xH2LkvlW5zp6+EeDLmB2G1EODN1JJ84ArgV4zG5TX/e6IaLiru29jBL9oy7btXb+mseJzAOcs78u25ewwmT/J2+4liB6MZZIuQMyZpLFp3MxWyfiSsMY9rM3DGHFYwyxiueBKjXrpBMUWoeVedltXz8o1Eg8gv0W728bqkb3zele2mbc5RnSORA9mb0Z6AzBfQRVZi9iJcauZfX90eGBKrfob1t0QLepecR/YtzAWIJ0e0k9xyN07gXPN7GK8+/Gi7r51zvHiEa5tfM2aMCJ8/vl9bjzrZoEW7HW5HicukvRmUJB0ZwwbA75r2G3uYEw0r1oTaXowOrRKi7uvHfSM/yVmf4TUSD4TgEPqFJxhxhsR9+1l71Bnd986Z/b8LMZ2Dw19r+F72+LlfW2Gm53LRQud23WeZN1IvZLOB02mgKaAjWb8PfJrR4dvmvIcow3D3xnr6un7ttA5iPcSKB8taT7wLjNbBPwkZ7q7q7t/nRnPSewaGa4fGnbe8v62dnNH5CJ/lrBlSJcJXYw4sbFPYa8CX0a5SRcVPJDQPrttcHxX7u+89GeEn8+5wBVgZ4LdIfM/7uzuW4vzL/msxh665+age+0Fb+xzY2PMNs+JeJaCvQF0qcRZhIvGRMDtztzX6zWsSz704uYtdtpJwziewOiMV0L1+34FwyibzdciHdW7hxGPGsNItjWDww6D3bvRnohimTsl9yOQFT9aUTdJOOGPB1spON/MXezQ9+Z+/EdrM96/+tqX3zatVrSjP/nDrFP7aT6beSte75Sii4D56XCNkmcnVcuv6DooqUSlfBuFfZil9pHqniQKhQecSqcm1SbVPkFaFA/MiBPda3tGUjSqYls8ZvMYPyLSU1Ub7gcYHRrYvai778fALMw+Qawa0uDsQQiOQ1wJehPeP47ZYyae8T56bFF33wsmXjLHL8B2eO8jw+TM5CWTyTnnMl4c6byOl7HAfOYUWXQW5l4n+XMQC2GfJEtzZjYA9hcmnhidpPZ9KBLlLUOw1+AW4BnFCaaLq3XOT7IvBpYQVx8exewJd0T0ZGf3il8INhu2C2MclEHMluwoc+44xKngz1RcHflcxNGTsK7mgCGw/5RVEQeZAmwcvnFrZ3ffauB1gl8FQtUAM8CZkk4Fu8zM1iM27oiiRzu7VzzrzDYJ2y4poiCylzFnYraXP86MBZFlTkTROWa2UNLi/DXXSCiXzFgDfNWMZ9YPNfcaO4T62DB8/dji3r4bI6/ZYJ8GLWx8L5ol0QNcSDzx2ujFU7tdxyOdy/qeE7zoHJu82OGQR05ekgxryzoDtUfez8XbAnN2gvf8/+3deXgdd33v8fd3zpFkWZLtmMRAAyQNZAHLKSW2QxYSIBTaQhsbWnrpvffpXZ6Wpzz03pallLZcLk9CkmZpgMtSSNlKW9IGYhkIZUlIIAkhkrPYkrKxE5zEjuPEm9Zz5nv/mDPnzHaOjmTJlpLPCxzpnJn5zW9G23zmt8wJeHiSmZ3sHr7InRMO43ebAw9ifMLhG6PbvrJggXd4cOCR/g0XfszNno/7BbT3IEeATnc/FbMTcH812P0OD1pgP+7fuPkR3HcD+zAmHKuYeaeFLHPn2CCw4zy051e8egrYyU74Yve2Wl6yJoBPO/z76NBXNQEEcPct11Veds7v/dPklJ9k8GezeHhl2Z0Xg59oxvmY7TAvDwdT/qO1Gzf9zOAxdw4EFoRV3M2rBuVSEITLPPRnQ/CcyqQdb/jJ4KcCL3H3E+YQvIfN7IrhoS27ZqzwTCscuPy1Yd+H791hpeD7eHAqkPmB9PSn2bHlnu6QU7hp26Ej8aLd4BF/6FoGy7phagoPw/xd/OQBxN2P6jeMnKgVwU5zeJ7BWWalH4RB6abV77zxB90e7N7596+et2bfdjzvPd/tnHBO8aD0m1UPzyMMX2ruz6PpL4BkpyXL5A7PrBV/vRKBABLJJR1WGhsnlnvjQ7xFIgJR9HVMtpx4o5bpo0iEqjikJAOL4wcNPrPz0pcv6a4Vo0MDB/s3bPoGUHbsneC/ziy7YEUcoNfdfx14KTAehr4b972YPenRALcxzKbBJkK8itEB1uVOh0GvG6uiQWbVZ7n7GqBjHgaxVsxsK3AF+PDI0MAR+fmZxV9HdziA2beJulw8j5YX3d7j7uvBXgY8ReiPgz1l2D6MScMqHgWLTjPvw8NVDscCq3E65thqFAL3G/aPTjA4eufCPem+NGW/rHaGnwfWABcyu4f0dYH3R38ceQr8MbDdjj3p0ViSaTdCM8oGJcyWGcFKx1fj1dW4P8ehey7fc2Y2jPEpzIZ23LkIZ1A7EhZJq0eKBYcC8+sc73Tn3cAJcyvIy+68CHgRMEXojzk8YWZ7HXvS8DGHKcwnzagadFSrYaeZLcODXsyPcffVDscSDaQ93HEQDjxgZh8Du25kaOGnjfWxzpGgZ/oqdzvG8Q3M4plKtTFa8fm7APcngCeBpzA7ZNiUQdWdDodOzFeE7ivBV9e64ZTn+Ltr2syuxfgH8HYHWbel2c3LpeLu27+0b+3GC6/G7Tlm9ub2u986QLc7/UQ3tF7rzm7DdtWenTXuHk4HUHGCrsAo4UEn+Kra13N17YZlzxy/pg8b9sGgwwbbWbmtO0jh2NijQUfnHWb+OsxOSBxoQ0ErR/R2fIFIfihI4fHN0NoBbQaP+PP4DrtBz3IYH4fJidyuLb1RcsrW+tsWzffb69gZYKcZdn7Vgu0HjTtXvuum20tV+2GpWjr4+EfOX5C7a2v+6tZypVo9jiDYOGZ2FoQbCCsvAZ4TDxhPH4s1udpqXNynGjcyy5MdrWqNE41Xll6e3m8+eaRzpjdfl8b3SrqlI3/XOgpF0f/ixYZ9z+DuoqNeakaGBg70b9j0dTOm3HkbcB5t/swWigZKLgdOBE6MQ6VHy6oOldrZD2r7CWrLapvHgfGwv70PAf8OfAJs+8jQYc5736Zk9G3X6NDAvv71m/7ZsZPBX090/lrtJQBWu5OZESQR/hv/ORwO/MSMT+Hhf4wODSzo+Kbt27d4/1mb72PaP1K7G/ZbNHlybXNe8uhJ5M/CbG39d5Z7SPRdFRD/5NfOUeNXzpyCx/3Axw2+OXznlmfWIPOExdjUs+MH1/u6DW/ch/u1BlU33o6zdu4lOkBnbfzDC+Lvn+hbyEOiFsKQ6MI8/td0IpQ5qhK1fH4cuH5kaMsReUjq6Oh14UvP3nxrZdo/AFyM8zLm0FKOs9yj32/Pb1zMzfR7a87B44uGXY3z8+GhgXm9aVIudzqV6cX4bd+20cGtv1h7xuaLLfCymb1plpMcgHtQu7l1rDsvSfxODan9HDhhoqf9YZ+uncD7CIIbdny/vZtgbV3IHHrv2dN9H95+F4HdQyl4Ptk7sAXBIzqexCCK5PKmx9kqeFjmPfLrFjVmJHV2Rd2vpqegWrvRWr9jXliDgtRUW9u9x7H+qJ8drzQLHg7Ldl9YDu9e9c6btjvhAwHB/kMvPDg99bYL5/SVXfVXPyiXquNdoXG8Wam/Ai/1wF6GhycR+q9grMDjkRn1O/+J+no9MLjl2xFSs0TVglp9nUyLSK20zCInuUG+XaS+YapOyUHtcYtIY43019mtsKNe4TEYNgX+6Z0XnzWrqRwXs5GhgX21FpA9GH9K9DyDeZviNfHHt0Smy888/2GO7Qb7jBmfx+xHI4NHJngcjo7AHpwO/WqH44BzyLX+tuLx/+eTAz83s0+a8W/DQ1sP65ke7Rq5Y0tl7fpN92B2hUXBYQ4BpMaTP7mNvyfz9D3nYDvAP+owMDK4dTGNJZKa4aHrvX/jm/a6V68F3wv2Z+DnMPvuOwXqP3RGImzUl87/77Yp4PtgHwe7cWRoyxH5mYzd+/0tU/1nXfgdq/BejItqXdIO4zwuyO8tgAnDvgh8CPy+4QVo8TY7ao+CmVfjE933dy8fv8iigcq/xyxatNJSj5WoT6AyXz8DZvYQ7he78eWRwevbvgnW9l1Uq1Z+6GHH98z8bAJbA5C5zq1LBQ/Ihuii0jMbJ+XvjOc0DR7pch2Dnl4YH4vCh0E80LyxWtTtyhKhJL5UjsNno5XAqT3L4HiH4905HXidWbAXSntCCx5c/otn/aj7Hd96DLNfBEHwixVWfXJflWpgJQ+t6tFdewuWBW5Q6p5wfw5uL6BU/hWYPqFqwakGz3OvPovQnwW2kkw/wOTd6Xo3sWwEcK8PbWneLJluEbH4FNaLS7dbJE9DfU+5YJGtiTXqWjuz9dl8UwU2Qki8TkvRzoYcv2mGNZeckaGBQ2s3XHgHsJfoDsMfAL/CvPyRPmJCg1GMTwFbIHhsZPD6I9pVca7uGdwSrlu/eVttjv/3Ay/n8LtnzFUI/NjMrgKuHx6cn2l12zW6baCybuMb73avfsDMdrv7W4BjjmQdZjAN3GHGR4CbRoe2zmuXDplfI4NfduCp/jM2fY2APbUW3t+mzedDLBJPYnzV4Bp37hkdmvusd4dj5I6tU6efuemWMPQ/M+Pd7ryROV+wLog9YNcA/4Tzo+FtA4v+xtPR9JPRfw1PO/f3RsuT4QeAR4ge2rigD7edpdCw24HLDbt5ZGigrenYY22Hj/3vOGNixUeGbyEIfgN4HV67WxXfoQZS10LZUDKr4JFsKmkSPJq1cjQNHjUdXdDbB9MVqFbyuyu4M5/bdWb2kOi6PIToG2O548dHt+zDDR5WxsxKE5iNhxaMP0V5CqtUq/gEXprwKIV2j3upiyAo4b4MvJtqpZvoF3CPQ2fyREYX7d6Y4amgooUDt72xDJqHkMYTxC16snzjtKQK8sTXprEoH0LSGdUz3xoehbq4qPqsY+nvgWzTYKMu9ZAyBfbRRy8562k5m83o0Naptes33Qd+BcYQ2Ftp70mji8E+4CsYnzPjrrDE/tE7rl+QZpWFMrxty3T/hk234bzT8fcBr6VoBqyFVQHuNrgUuHlkaOCwn5Y8F8OD11f6X/Y791EqXWJmP3X3twP5FvEjb68ZA2CfxGxkZHB2fwzl6Bm5a2Csf+Om28EeAb8X578BJ7G4b7BUgYfM+JQbA4btHBkaOKpThe+4c2B67RlvuMuC0nvAHgT+FLzdCSIWSgiMAh8z+EpgtmvHkKa7bscDt32punb9hQ8Cfw/2C+B/gZ/I0f+52G9m/4JzjcF9w9sGZt3bZHb9x0MfJQxvwUrrMY6D1OVgcUtI4SVG+p54ep3MJWvL4NG4i557P/Feqo4Ay/uima/GDjVmdEreei+abjYxFW/jdbJ1JFm/Wj8jpxfojbqdWhxQai0rxH3vAAL3MMBD6j2ZWn5rNcZC1MdFeKPdIt48CiAF56RxarJnJrdGMlTmZ2xsRLTcOag3WTSWF5WfWjfeV6alJdVqEr9TWyfes7sPYvxH4W6eJka3DVSBx/o3btqKM+zGW3D+C4vjwq/INLDDjGvAvm7GY8ODR/eP8+EYGRqYOn395nuq8OcG/8PxtxL1qz0SfwgOmNl17v5hM3toeGhg4gjss6mRu78aAjv7N2y6BuNOw97p7r/J0QnDU2D3mvnHzfgW8PjwEujOJ2kjgwOTaze86SGofMyMu93treAXMI/dTOeJEw1q3+L454CRUjk4sOP7i2MmtdG7vhYCP+3fsOlD7twG9hfgr2ZW3UXnhRM93f3Lhn3W8R2GH9oxNLAoztNSMbpta9i/YfNOnM+Ab3f4U6Kp9I/0zS+IboDdYcYnML5rZo8ND84tSM4qfOz/89On+j4y/G0rBReAvcbJdK5rO3hAajxIVstliXJmFTwS65RK0LcSpibw6WkgMx4iue/Ubf/MZK+evviub54bL2G5yrgTmHmQnlErEWaS1+7JMuotCp54Nzswm3r7QiJGZY8yHbKIWkLyISJZSjzzlTWq1Ng6d64bp6Fx/nLnKnt8cf2jCmXWy7eIRTHPpwKzj0H4tGz1yBoZHBhft2Hz/Y5fEU1Vyx/Uur88l8URQirAfWb2Oce/DjxcpmP83sH5e8jh0bJj25Zq/5lv+RnV8SuBbxn8tcMFLNwf9irYD8y4GrjFsSfne4Dm4RgZGtjXv3HTHV4N3mpBeAHub3fYyJHp7jGN8ZB5cA3GV8EfHR7cuqQeLCppo0NfDoEn+zdsutGM7bi90vE/JvqeOtpdsZzaDHiG/SP4oJntHxlcnN2HRoYGnli7fvN3ML/fsN8A/ru7n8nhTFrSHgcOGNziZp8xuMNg78jQ1kV5npaC2jT0+09fv/nW0PghzlbH/yfRGMQj0QV4GthuZp8Hvgk8jNnk8J1zD9yz/yb0cNir4XcolV+KsSa9jCaBI5Zo6SgMF40L8PkPHsllDsu6sd6V+FNPEA9+rF/geuICNy4l09KR3mP6kt1rt+Ubj73IPj892ZUoWXQ+zKTqVSu78bC9WslOfWB2o9a1cJJ8ngaN0RpFz8yIu2o175bl9W2T5zQfthrHUI9EcStM5tkhibYLcpLnPNXSkT4zBreBf+vRS85ZNBdlC204arbeF/W/Dx8ws8/hvNnxtwAncnTuco1h7DD4F3e7AdiFMTEyuHXJh46kkTu/6MC+tRs2fR/3PzSzM9z5E/A3EN2Nmo+WkEngdjP7rDtfNzg4PDSwKKeKrV187erfsOlLwDfM7AJ3/hD8NURdUeczEDtwCLPvAv9KYDdT5akOCybu0TM8Cpl77oGxi91I9L2+s3/9puvMuBHsN9z9j4AzgV6ObLeTEGyfGV8GPu/RswwOLYXWtdFtW6b7z9z8MM4/4/4NzM4hulF1HrCK+f3ZrAKPYnwDt+sIbBvuB452V7Snkx3btlT6z3zjTkK/DrgZ93MM+8+On0s09m4+v54h0ZTLtxpca3C7mz2O2eTInYffbXpOP8Crrt5+SrV72d8T2G8CpdYtHYndtKxuIng0WVxYxlyCh9fW9xD2PIqPjaUL9vjCu7gdoLG77J353AqNV8neWy26QjXWbbIs9VnyQj5f3frYkGRLRf0ivjiApCoRh5Gmx9eIOpZ6Lkq8KH8OLbVpLURmXheORSl4LyrLxgL4fTO+9cgHz1n0fwwWyrqNm8xDOvBgmQfh2ThvAt9M4w/MQvyxdqJWjp9jdp25b3Vj2GDaPaiMbltcF4MvOWOzmbE+CGwwDGcc674fePfotq2fmmnF/o2bSx56pwX2fNx/u9b96GwaF94znfv4ts0EcK+Z3eRwPe4PWWBTi/XOajP9GzaV3ekM8DUh/A7G+ThnQv1BZPG/mTjRH0AHexi43cxvCbBvVWEPMD06dGTPTf+Zb+r1MHw9+NnU+9E2Y3srhyqXPHjf147qxAr96zevdvPXg6+n0dW3mNnD1er01Q/cdcOi+tmNvqe808xOddiE+3+icZNlIX63hcAE2K24/zsW3GDm+4CpkUXU8jgb/Rs2m+OljlLQWa368e7+avBXeRTojidqrWz34jX+nTWF8WOc2zBuCiy4LfTwSTyYHt0285PSF8KJZ7856KtM/0Ho4cuY+Qb7L4OALw/fufVnR6Bq827t+gvLhnWAneAWvgrnAqIJUdYQHftsfjZColnbfgncYWbfcfxWsEcMpstm1Xvn8QbPnH9oez86+ifW0fE3GC9o/etskQaPWGUa3/VLfHo6nScS18xNL9ChoGtQboVGgYXrJpuALL3M8suKSm68yLcspXNJpoxMUGmpYKrebGG53NG8tvmyUodq0VicXPCxzMYG8AXgf+++9JwjOrXhYrZ2wybDIVjeVQ7HJ0835xWOn4dxFs6xNC6IZ/PzH/+xCYFfGnwP41bgtv3Hrfhh3+MHwtFF3pd3ocJHUv+GTVYqE7hbb1jlVMf7DU5xfI05Kx3rMyhhHML9gBuPGvYT4EEC24Gxl6qHI4v8XLZr7foLLWoEtk6cE4G1DieZ8YLoIWXWY+Y97hYYTDk+ZvAE2C7Md1oYPEjJ7nP33e4emjkjQ0e3JW3thk02wx+0GmOx/Eys3XBhez/rZowOLo46N7N2wybrLPUF1fDQqSHhK3Be6e7nE11wzSbcQrq/xn7gAaILr5vBbnX3/bj76F1Pr9ZbgP71mwzcyqVyR9Wrzw+dFxv8qrufCBwH1gv0Yt6BMwEcxDiIs9OwnxPwY8zu9zB8LO5WMXqUfzZj6zZutnCmewM1i6XOh2vthgsNx6yz1OkVP4nQTzP8JDc70aIHCPZh1lObLXXCjHGHJ4DHgJ2GPVQOggd6upc99tTBQ1UzYyH/Ds05fPRdevcaVvV8FLMLyfU5yxQ71+DhTT5PvW4RPCDRjSvdVSjl0EHCJx7DwrAxQ3Cy11XiznyzdoDsXf7mJzbdCtHqIj3ZINByeVER9ZaE9AqFtSsoaMao0bIZvyBktTiGGYooqEv95O0Gu9AsGNp1yVlLYtrWo2ndWb8fWBiu8jA8yQlPcrcXgB+L0YvTA/QYdDhMgh0yOIRx0GG3mf3MCH4cdIQ/3X770nxg25EIHyJydPz6WZuPqVT9hY69kNB/FfPV7taLeQ/Qg1OKAi7jGAcM24P7o262MzB+WDL7+b13bnnaPCNKZDGb88CjA+992e7eDw9fa11dpwOnkL0t3VZeOkLBo9nruKzlvQSV1YRP7akN9C5oJ6glEq9tlIsh9TEoiXEKFF1c1971uLxsHGikneTT4Rt5omB59mzUu5UlapDYrSWPMBuw6ps26f5UP9xo5XiMSHrdgmXJSiYeIhIfRe6MJ+uSWBrXH2wat88AD+66VMGjHcN3XBcSPStkL7DtKFdHRGTe3HPHlieJfq/pd5vIIndYg1PCA/u+7tXwm2C1WYbaaUjxxr+WwaNJiGk3eKSWN9lXcqO+Y7CeFYnVvPY8j3SVE0tr/y1IWe6N5e7ZTdOF1bqC1RtmUhXz1Bbx6qltU1s1tvbkq3gbT5feeC9RgWTxmf8ViUOI58rOL0tVOXe0VryfxIEnjtbduNuNL4Sh6yFiIiIiIkvEYYWPsb89d8Impz8Bdi9YNPAvf6WdEN9it4UPHsmr9aL6ZN8zw1atge6eVD8n98wlcZMgkmuoSTVHxHGg2emJgwq5HJDeIr1e+kBqIaa2juVrFB9QruRGCUVBKn2crbg3X54KQwVVT34hG2t6er16TLG95nwUD3+25/JzW1dKRERERBaNw56W68A71j1AZeoLYLtaX53WWh9ahZNU8GhyB3whgkf8XhAQHPMc6FqeLqe2Qq4VIHX13lhmjbcy/5KtD/mWguTKiVUzlbb61qkGjezpqtep4HDzhddjYSoipTNP7iwUcs8HtswxOI0WodxK9V2nkkny02nHBxz/7uOXvUJPMBYRERFZQuZlTuBwbPxLVKvfBjIPeEpeyM7QJavgAj21DJh18Ei+P9O+Y6USwao10NVdz0rFm2Tu5acaF9KX/PmuRJ6qf/GFvCfKypbdWCPd1Sqx20wCanQES66bPtfJrl+Nspu0VHj6HBRWP9EVq7hVJBHEPFGzRFe3dO1xYIfBF8z80eIdi4iIiMhiNS/h49BfnvGUT05dDXYvZrXBv8mL1jaDR7NlwLwFj6I77VkdnQTHrMGW9dTGR3vTLkWpsR9OY5wIxRfnqdfxxX/+IjtVuWj/+bINTxxqIi544v3C1pPkFrVyk+NbMqunQkh2bEitXs1aRDwRcOqtHfVi0gEuF6By9bBHwa4J3e7Zfel5S+rZByIiIiIyj09DPPiOdTuYnvo4sKtxhdpibAdkrjibLIvLSbzfMnikypht8EiU09GFrTwOlvWCRaep1ZiGqDhPDvHINBoUjnpIrOCZddMNDcmL/2TDitVng0oeVHoWrHQDR6b5IvlufdAJ9TCSXrt42+xBtdMtq9VMvYnh+olzbmPgA+7hN/f83bn7m28tIiIiIovVfD6KHQ6Ob/FK5VqsNN6yzxJkr6yLlwEzB492yki+blGpTJemOIBYdx8EpdoqnvpXtNvUgOnCcNVk3EQytHj+cr/xsbYs02ARb5bs9pWKJXEISY2FSR9zaq+JlplG60PRFgX1r5fTZPRHsjWnYKatVLlGFbgDs3+lxMO5wkRERERkSZjX8HHgr88Y84mpDxFyU8txFvMaPLKtG81WjAtvZzrguB4WBZAVx2LLV0Ip/1iUZFei9OaNAJIKIbm80ca4icw0ttmLfy8oOxlSCls5UoszASC5hcVPBUkHEU8dUpMK1MNOk+NMTGrWCCHZupg7PAj+2YDqPXsuOU/P9BARERFZoua35QM49K7TH/aJsUuA7YV9a+YreHhBl65U8MjuOxM8mraMxJ8m1i13Yr2rsd5joCPzMPfafluNC4nKLLi7n2klaJJP6vtILi2OCukminx1GjvOblEPAJnS88/vKK5hvuTiFXKzhRUcRW3H0UfjUcP+2Z1v777slZrdSkRERGQJm/fwAXDwHet+QLX6QZzHUgvi1oT5CB6591J3y1uUXfA6uy8vWLfUgS1fjfUeh3Utp9mghdZdshLdrZLX38kWiHpbQnqGKgrWK5rBKtvi0ahP9oCKo06qO1RBi0mqtcMT/3IlF8SpxMt0+enQ03jX9gNfxcPrnrj8/N0Fp1tERERElpAFCR8AwcEDXw2qlaux4CCQuXDOmE3wKOo2NWPw8Pz7yfW98WnTfQAEJay7D1mueUEAABFoSURBVOs7DuteURsH0rStoq0gkmkTKSiuqKWDgvM5c9tEshWj+EGG2SASr9e6taO+csGCVFiJ6xEfk2cDU/KjTQLfBfucBfaT3M5FREREZMlZsPCx773rJzqnpj5LNfwkVp5o1drQcJjBo+nMWq2CR/qiPTVQPvWxVoYF0Lkc6z0W630WlJc1KTtbzVZdswqmqk3lgXxrSKpyqav4fPtHth6NqW8La5o98IIQ0qQ1JDl2pGngAsNyx5kZdlLBbJvh/9AZhvc8ftn5YVFNRURERGRpWbDwATDptsempz9GtfpvBEF+oPBcgkdywUzBo/g6P7+/7ArtjEkvd2LLj8FWrMG6V9an422+48TSNsaHpIZnFzZ7xJIP5/BsNiDXspIpw/MX/onlyXm0EuvVm04KWkuSe0zOlpWpUfw09eykwo6FWHAf8HFz++6jV7xysrD6IiIiIrLkLGj42P+ude7V6i+YnvqQVavfSl2gH27wSGoaMnJXvW28Luq21SSNWAnr7I3GgfQdB+WuNiqWWBq3hjRfI9FFKR0sopdxiEm0JDQKT7SINPbTot2iIIikkl79dT5/NAshjaNoNj6ksa4D5pj9HPwaPLxhzxXnH2p6akRERERkyVnQ8AFw4F3rqqVqddTC8FLgu1gwP8Gj3r0nU0bRurn30nf0G/tNzv1adDTJ9+NuWAblLqz7GIIVz8W6V0NQJn953aLgGWbLSj03pLZ+stjc8maVTzRdFNck2crRGKSeHx9SWMmi5pPCI08/2yMRhcx24f6Zkvm/7b3iVfuKdyQiIiIiS9WChw+Ap961bhpnkDC8COd2gni3Cxk8PL+syc5aPYS9bRZARzQWJFh5PNa1ojYjVrL7kpHuJlVQsziENMsp9eBQPGVt4fJ8IakWiOIWkbg+6Y/xPtKtIMkuYo2A07rkeN3a52ZPmPunIbzm8b971ePFFRcRERGRpeyIhA+AfX9+2iSV6u04HwQbagQQ5hY8kusUbNb8mR4FYcUpTiDZcONFFcoIytDZg/U9F1vxAujsax4CWqiP+8ieG8+vV3+/ILC03ncyKDQKT3WXSvzLt8zkOle1qGt+H41GJNtn2Ocw/3+VsmtKXREREZGnqSMWPgAO/MVpE0xXb6HqF+PBvXEXrKaXx62CR7PmiuwFclHwyBZjiTdnnxMKWPQ09K5ebMXx2KoToLMvUaHMIPGWO/Z6a4K7Fz4mpXCmrMTHwmeGZNfLjB0prpXVW2WKx5IngoUnPjb6W+UCnAflMaf8RTcuDzrZfeDS18zLV0BEREREFp/ykd7hgXecMt579YPfNutwzN7vQXAGYcFMqi2DR5PC6y0VzbpctbqunWGgeTutJ0XbB2WssxfKy6EyiY8/iU/tx8JKophWXcTSu3d3zGohwAzLbBrNJBUttzipWLqURlUtvddauGk8XdxS61tRJHGr58B47VrV6nuIWnAy+8Kocswk9Fxr4YH3W8eBx5/64AUKHrJgDMPMDgRB8G3MWk/f7EyAP3KEqiYiIvKMMR+jHeZk+VUPdJbKHa/2IPi/4GfiiWuBbKtGLni0Oa1u7v30cz3qiz3fIpLoE5RcseA9irs7eSa41Me4O1Sn8Ml9MLkv+ty9drFu9dYNI37d9GHqtapEAcOyOYP08zRSl/5xMPDkqc6Eg9xwFctuntlfI4HE+cUKCywT0kdox1Wc8mdKNvGesFrZN3b1aQoesuD6N7wpKJVLnWHRDY8UB/fp4cHr81OEi4iIyJwdtfAB0POBoZKtWPkqyuWLgJfjYXF3qlYDzOvrNNlJMkQUBQ/Ih49s8Ki/l7jczgaVVuGjqEwHwgpUxvCJfTB9MHqdG7Piib22/nIZ6VaIovaUohCSftliH7WAFCeL4n3U3s2loWWEvpKQFXjQjQXVj3k4+a6Jq06aaHlQIiIiIvK0cVTDB8BJl20LnigtOzfsWvY+t+A8Qu9MrdB28CholSgaWpF92bTVo1nry8ytHtHqRV22klP5ZlpzwgpUDuFT+6NAElZq7RZW6+4Uv4rLadFVy6KAYEXNIfWaWH5RqvvUDN8a9WaNomgUF9RByHKcVYS+HAggKI11hAc/tKZ06AM/vvLXplrvRERERESeTo56+Ij1XX7fr9G9/D3u/gY87CXucxRrOsC8/h+aBo94++yA7WbjOgrfT+xjhlYPaNby0SR8ZCsVVvDKeNQaUh2H6hRQzVacGUNIvFZyjEiTZVbvL5V4vxZ96vvIntNoxURdAqADt25C+oDleDysyAkpd+4KwoPvXxXe++lHrt48U78XEREREXmaWTThA6Dnih0nWlffu4E34+Fq3KPZuGYTPFLLaCxLXOwXho9mwaNoPzOFD6feRpHeYTvhI14WrxtG40Kq41AZx8NJLJwCj7uiey08JHfW/MtqLQeQNMaJpMOIYfWR7YmwYQFOB1gnbstxluN0gpfSdTCbJgh+HPj4u6D6jbErX6R+9CIiIiLPQIsqfAA8+7Idx451Lnubl8r/FfcTG7fOM2Yanlw4eDzxsih4ZN/PbdDeeI8ZwweQnqe2Rfiovxfvu4p7NWoNqU5AOBl12fL4X9gow+qVaVTCWnWqSrSMmNUiiNW2KQEl3MpAFx50RR/prC1rcmxB6SCEg8uY+tsOKoOPX3mygoeIiIjIM9SiCx8AKy+6t7va2/NGCN6O8Ws4y8jWtVmrR1Eo8YJPm7Z6ZMqD5uM94s9zg82Lysi8F7Zo+cDTrT0zjlfxqCXEqxCG4NMQTteCSO19Dwsra8mWDAKisSUlzEpg5Sj7WRwwAjwVNJqMx4nCUwjsscCvh8pV5hM/GbvyNHW1EhEREXkGW5ThA4D/e7P1LjvuFSzreTvurwZfTVzfVEtEkxaJWFHwgOYX94VjNZqFD8u0YDS2mbHlo2X4yFY28TrOJdluZfE6qSCQCCf1jZOBIbOtGdkB+N5Y2Ly1KT9GZoogeMh86vPG1OfHrjz58SZbioiIiMgzyOINHzU9l913gpXLb6Nc+l3cXgRebh0IMgpbPZoFj0R59fdm2M9cu13NNnwk3vPc8mz4SG6TPB5vcowF+ywMbU0CSKNMx2wvHg4Z0580n75x7KpTDhZsISIiIiLPQIs+fAD0XXTX8rC753et1PFHOK/A6Jn5Yt1SV+kztnq07HLVIqw0uRj3wgv8NgecZ7tdZbfHMwFkFuEjV1byWIqPtem5S7EK8BMj/ApMfwE/dP/4leumm6wsIiIiIs9ASyJ8xPouG11HufOPPbDXgb2QaCBCcfAAime4atXqkdi2/l6Lbl3ttHqkyjrc8BGt6/UWjCRrI3zUK9jYJlv+rFs/zDGeNHwbXrnWwqmvjV11irpZiYiIiEjOkgofAD0X3bXSunreQKn8RrBXYRwz5/ARL2gZPBLL5ho+Clso5ho+mlSvafhI7LdRwXR9svsoCCCp8NF4Ywr8Icy/Zl7ZYn5ox9iV6/TEchEREREptOTCB0DPJcOGBadaufP3MfsdzNYBy6KlLYIHtN/lqp1xJYstfAAUzSeVKytzXEX7yJyb9O4tBHbh4fegcj0+9Z2JK0/bU7BnEREREZG6JRk+Yj0X3dtrnV3nUir/FthrseBFQDl9YZ+8UJ9N8Eh+0ubzPWrvH9Xw0W7Xq8L3E9umHnTYqBWwH3wQwhssrNzovvfBias2VvIFiYiIiIikLenwAdBz0d2BlTqeTanzXAtKr3ez1wDPJXpoBRBfqLfqYtTsQn+W4z1q77ccbF7fdpbhI1OHXD6Ky4F860fT8JGpV7K81OBzA/cJCEcxHyCs3OjhweGJq156KF9JEREREZFiSz58xFZevL3DSx0neql8tmOvx+wVmK3xOITMqrtV8pMWU/kWdnFqo+UDZveQwVw5iZdz6nrVRvhofD6NVx/E+Aoe3lhicvvBy1+8t2APIiIiIiItPW3CR6zvg8PLPCj/KkFpgxuvx4LzMFuDW70lpGX4qL8/h/EegLcMDfMVPqKnDC5Y1ysMPKwQVn+I8WU8vAkq941ffurugpVFRERERNrytAsfsd6LR7q9XHo+ZmdA8DqsdD5mz8MpA7MLHqn1E68Lu11ZLkcUlnVY3a6ahY9EWU3qliss9Z4BPk5Y2QHhDTg3wdQPxy9/sabOFREREZHD9rQNH7Gei7Yvs1Lnsz3gZChdgAW/iwUvBOvKPVQP2hvvEb83q5muSJc3l/BRL69V+CDadsbwkdjYzXE/AOHNWOUrVP0uZ+qXE5evfaK4EiIiIiIis/e0Dx+xZe+/rVzuWr3KrfQ8nLPBXk+pdCYEq0meh3a6XMXvLWT4aPZckXo53nzQebOWj2yZ5pOE1Z/i4TfN+aYbD8CBXTA1Pn7ZxsISRERERETm6hkTPmJ9f3m7hb0reyiVV5lzgpVKrw3hjQTlk4DlhxM+2h7vURQ+Uus2GY+RCR/ExaQacFqM+4jCRwXCJ/DwNqP6FTy8y51dpXBi38ErTp/OH4CIiIiIyPx4xoWPpBV/e3eJ5T3Lq2Z9XqmcYqXyqw02eVA+GeiCwIifbpHU7ngPmGP4iJfP1IrSzrgPA7wC4R48vIOwegMeDhKUHzWfPBj42OTBv1uvVg4RERERWXDP6PCRtPx9d5VsWU+nQTfV6RMJyq/xoHQOBOdipRVQG6gOTbtcRR/mo9tVbaUZHjRYfys5e5cBmOM+Thj+3Kje7F79nll1yOnaQ3VqksrY9PhVZxRNyCsiIiIismAUPgr0vX/IvKOn5EGpxHSlDziDUsfLzexMx9ZjpZU4HeTGirQKH/PQ8pFdp7FqiDMJ0ztxvoP7XYSTdxIsf8ioVt0r1YAD4aFLNY5DRERERI4ehY9Z6v6b73cGQfeplLrWU+p4Ie4bMFuHlVY51gEWEJ1XK2z1gPbCR77lw4keH1glrE66V3didpu53+/V8Z95deymictfvm/+jlREREREZH4pfMyT3v8zuCL0zlPMSi/0UuexWPkYvHoS7sdjdhwerCKwbrBS7YGHhtVDh+PuuFfBp/HwIB7udbPHjNLPcB41n37SfWqnhZX78fCXhy5bXz2qBywiIiIiIiIiIiIiIiIiIiIiIiIiIiIiIiIiIiIiIiIiIiIiIiIiIiIiIiIiIiIiIiIiIiIiIiIiIiIiIiIiIiIiIiIiIiIiIiIiIiIiIiIiIiIiIiIiIiIiIiIiIiIiIiIiIiIiIiIiIiIiIiIiIiIiIiIiIiIiIiIiIiIiIiIiIiIiIiIiIiIiIiIiIiIiIiIiIiIiIiIiIiIiIiIiIiIiIiIiIiIiIiIiIiIiIiIiIiIiIiIiIiIiIiIiIiIiIiIiIiIiIiIiIiIiIiIiIiIiIiIiIiIiIiIiIiIiIiIiIiIiIiIiIiIiIiIiIiIiIiIiIiIiIiIiIiIiIiIiIiIiIiIiIiIiIiIiIiIiIiIiIiIiIiIiIiIiIiIiIiIiIiIiIiIiIiIiIiIiIiIiIiIiIiIiIiIiIiIiIiIiIiIiIiIiIiIiIiIiIiIiIiIiIiIiIiIiIiIiIiIiIiIiIiIiIiIiIiIiIiIiIiIiIiIiIiIiIiIiIiIiIiIiIiIiIiIiIiIiIiIiIiIiIiIiIiIiIiIiIiIiIiIiIiIiIiIiIiIiIiIiIiIiIiIiIiIiIiIiIiIiIiIiIiIiIiIiIiIiIiIiIiIiIiIiIiIiIiIiIiIiIiIiIiIiIiIiIiIiIiIiIiIiIiIiIiIiIiIiIiIiIiIiIiIiIiIiIiIiIiIiIiIiIiIiIiIiIiIiIiIiIiIiIiIiIiIiIiIiIiIiIiIiIiIiIiIiIiIiIiIiIiIiIiIiIiIiIiIiIiIiIiIiIiIiIiIiIiIiIiIiIiIiIiIiIiIiIiIiIiIiIiIiIiIiIiIiIiIiIiIiIiIiIiIiIiIiIiIiIiIiIiIiIiIiIiIiIiIiIiIiIiIiIiIiIiIiIiIiIiIiIiIiIiIikvf/ASKWDoCdtoAvAAAAAElFTkSuQmCC;labelBorderColor=none;fontColor=default;" parent="1" vertex="1">
          <mxGeometry x="930" y="221.58" width="93.56" height="46.84" as="geometry" />
        </mxCell>
        <mxCell id="iNtt1AEWV2vydWxyn8MH-15" style="edgeStyle=orthogonalEdgeStyle;rounded=0;orthogonalLoop=1;jettySize=auto;html=1;entryX=0.5;entryY=1;entryDx=0;entryDy=0;strokeColor=#FF0080;strokeWidth=2;dashed=1;dashPattern=1 1;" edge="1" parent="1" target="ako7mKqaWkMYn8Wf8Trb-34">
          <mxGeometry relative="1" as="geometry">
            <mxPoint x="180" y="480" as="sourcePoint" />
            <Array as="points">
              <mxPoint x="180" y="560" />
              <mxPoint x="430" y="560" />
            </Array>
          </mxGeometry>
        </mxCell>
        <mxCell id="iNtt1AEWV2vydWxyn8MH-16" style="edgeStyle=orthogonalEdgeStyle;rounded=0;orthogonalLoop=1;jettySize=auto;html=1;exitX=1;exitY=0.5;exitDx=0;exitDy=0;strokeColor=#FF0080;strokeWidth=2;dashed=1;dashPattern=1 1;entryX=0.542;entryY=1.058;entryDx=0;entryDy=0;entryPerimeter=0;" edge="1" parent="1" source="ako7mKqaWkMYn8Wf8Trb-26" target="ako7mKqaWkMYn8Wf8Trb-59">
          <mxGeometry relative="1" as="geometry">
            <mxPoint x="630" y="540" as="targetPoint" />
            <Array as="points">
              <mxPoint x="200" y="463" />
              <mxPoint x="200" y="540" />
              <mxPoint x="628" y="540" />
            </Array>
          </mxGeometry>
        </mxCell>
        <mxCell id="iNtt1AEWV2vydWxyn8MH-17" value="Powered by :" style="text;html=1;strokeColor=none;fillColor=none;align=left;verticalAlign=middle;whiteSpace=wrap;rounded=0;fontStyle=1" vertex="1" parent="1">
          <mxGeometry x="928" y="209" width="80" height="30" as="geometry" />
        </mxCell>
        <mxCell id="iNtt1AEWV2vydWxyn8MH-18" style="edgeStyle=orthogonalEdgeStyle;rounded=0;orthogonalLoop=1;jettySize=auto;html=1;exitX=0.5;exitY=0;exitDx=0;exitDy=0;entryX=0.5;entryY=1;entryDx=0;entryDy=0;fontSize=13;strokeWidth=2;strokeColor=#FF0080;dashed=1;dashPattern=1 1;" edge="1" parent="1">
          <mxGeometry relative="1" as="geometry">
            <mxPoint x="120" y="320" as="sourcePoint" />
            <mxPoint x="120" y="266" as="targetPoint" />
          </mxGeometry>
        </mxCell>
        <mxCell id="iNtt1AEWV2vydWxyn8MH-19" style="edgeStyle=orthogonalEdgeStyle;rounded=0;orthogonalLoop=1;jettySize=auto;html=1;exitX=1;exitY=0;exitDx=0;exitDy=0;entryX=0.583;entryY=1.091;entryDx=0;entryDy=0;strokeColor=#FF0080;strokeWidth=2;dashed=1;dashPattern=1 1;entryPerimeter=0;" edge="1" parent="1" target="ako7mKqaWkMYn8Wf8Trb-14">
          <mxGeometry relative="1" as="geometry">
            <mxPoint x="180" y="400" as="sourcePoint" />
            <mxPoint x="280" y="355" as="targetPoint" />
            <Array as="points">
              <mxPoint x="180" y="380" />
              <mxPoint x="280" y="380" />
            </Array>
          </mxGeometry>
        </mxCell>
        <mxCell id="iNtt1AEWV2vydWxyn8MH-20" value="v0.8.5" style="text;html=1;strokeColor=none;fillColor=none;align=left;verticalAlign=middle;whiteSpace=wrap;rounded=0;fontSize=9;" vertex="1" parent="1">
          <mxGeometry x="997" y="245" width="40" height="30" as="geometry" />
        </mxCell>
        <mxCell id="iNtt1AEWV2vydWxyn8MH-36" value="Hint" style="swimlane;html=1;fontStyle=1;align=center;verticalAlign=middle;childLayout=stackLayout;horizontal=1;startSize=26;horizontalStack=0;resizeParent=1;resizeLast=0;collapsible=1;marginBottom=0;swimlaneFillColor=#ffffff;rounded=0;shadow=0;comic=0;labelBackgroundColor=none;strokeWidth=1;fillColor=#bac8d3;fontFamily=Verdana;fontSize=13;strokeColor=#23445d;" vertex="1" parent="1">
          <mxGeometry x="270" y="395" width="120" height="100" as="geometry" />
        </mxCell>
        <mxCell id="iNtt1AEWV2vydWxyn8MH-37" value="= Main" style="text;html=1;strokeColor=#A50040;fillColor=#d80073;align=left;verticalAlign=middle;spacingLeft=4;spacingRight=4;whiteSpace=wrap;overflow=hidden;rotatable=0;points=[[0,0.5],[1,0.5]];portConstraint=eastwest;fontSize=13;fontColor=#ffffff;" vertex="1" parent="iNtt1AEWV2vydWxyn8MH-36">
          <mxGeometry y="26" width="120" height="22" as="geometry" />
        </mxCell>
        <mxCell id="iNtt1AEWV2vydWxyn8MH-38" value="= Optional" style="text;html=1;strokeColor=#2D7600;fillColor=#60a917;align=left;verticalAlign=top;spacingLeft=4;spacingRight=4;whiteSpace=wrap;overflow=hidden;rotatable=0;points=[[0,0.5],[1,0.5]];portConstraint=eastwest;fontSize=13;fontColor=#ffffff;" vertex="1" parent="iNtt1AEWV2vydWxyn8MH-36">
          <mxGeometry y="48" width="120" height="26" as="geometry" />
        </mxCell>
        <mxCell id="iNtt1AEWV2vydWxyn8MH-39" value="= Compulsory" style="text;html=1;strokeColor=#006EAF;fillColor=#1ba1e2;align=left;verticalAlign=top;spacingLeft=4;spacingRight=4;whiteSpace=wrap;overflow=hidden;rotatable=0;points=[[0,0.5],[1,0.5]];portConstraint=eastwest;fontSize=13;fontColor=#ffffff;" vertex="1" parent="iNtt1AEWV2vydWxyn8MH-36">
          <mxGeometry y="74" width="120" height="26" as="geometry" />
        </mxCell>
      </root>
    </mxGraphModel>
  </diagram>
</mxfile>
